ISO-10303-21;
HEADER;
FILE_DESCRIPTION(('Open CASCADE Model'),'2;1');
FILE_NAME('Open CASCADE Shape Model','2026-08-07T15:00:41',('Author'),(
    'Open CASCADE'),'Open CASCADE STEP processor 7.9','Open CASCADE 7.9'
  ,'Unknown');
FILE_SCHEMA(('AUTOMOTIVE_DESIGN { 1 0 10303 214 1 1 1 1 }'));
ENDSEC;
DATA;
#1 = APPLICATION_PROTOCOL_DEFINITION('international standard',
  'automotive_design',2000,#2);
#2 = APPLICATION_CONTEXT(
  'core data for automotive mechanical design processes');
#3 = SHAPE_DEFINITION_REPRESENTATION(#4,#10);
#4 = PRODUCT_DEFINITION_SHAPE('','',#5);
#5 = PRODUCT_DEFINITION('design','',#6,#9);
#6 = PRODUCT_DEFINITION_FORMATION('','',#7);
#7 = PRODUCT('Open CASCADE STEP translator 7.9 36',
  'Open CASCADE STEP translator 7.9 36','',(#8));
#8 = PRODUCT_CONTEXT('',#2,'mechanical');
#9 = PRODUCT_DEFINITION_CONTEXT('part definition',#2,'design');
#10 = ADVANCED_BREP_SHAPE_REPRESENTATION('',(#11,#15),#469);
#11 = AXIS2_PLACEMENT_3D('',#12,#13,#14);
#12 = CARTESIAN_POINT('',(0.,0.,0.));
#13 = DIRECTION('',(0.,0.,1.));
#14 = DIRECTION('',(1.,0.,-0.));
#15 = MANIFOLD_SOLID_BREP('',#16);
#16 = CLOSED_SHELL('',(#17,#109,#144,#183,#380,#434,#441));
#17 = ADVANCED_FACE('',(#18),#31,.T.);
#18 = FACE_BOUND('',#19,.T.);
#19 = EDGE_LOOP('',(#20,#54,#77,#108));
#20 = ORIENTED_EDGE('',*,*,#21,.F.);
#21 = EDGE_CURVE('',#22,#22,#24,.T.);
#22 = VERTEX_POINT('',#23);
#23 = CARTESIAN_POINT('',(12.8,-1.567547902909E-15,0.5));
#24 = SURFACE_CURVE('',#25,(#30,#42),.PCURVE_S1.);
#25 = CIRCLE('',#26,12.8);
#26 = AXIS2_PLACEMENT_3D('',#27,#28,#29);
#27 = CARTESIAN_POINT('',(0.,0.,0.5));
#28 = DIRECTION('',(0.,0.,-1.));
#29 = DIRECTION('',(-1.,0.,0.));
#30 = PCURVE('',#31,#36);
#31 = CYLINDRICAL_SURFACE('',#32,12.8);
#32 = AXIS2_PLACEMENT_3D('',#33,#34,#35);
#33 = CARTESIAN_POINT('',(0.,0.,7.6));
#34 = DIRECTION('',(0.,0.,-1.));
#35 = DIRECTION('',(-1.,0.,0.));
#36 = DEFINITIONAL_REPRESENTATION('',(#37),#41);
#37 = LINE('',#38,#39);
#38 = CARTESIAN_POINT('',(-6.28318530718,7.1));
#39 = VECTOR('',#40,1.);
#40 = DIRECTION('',(1.,0.));
#41 = ( GEOMETRIC_REPRESENTATION_CONTEXT(2) 
PARAMETRIC_REPRESENTATION_CONTEXT() REPRESENTATION_CONTEXT('2D SPACE',''
  ) );
#42 = PCURVE('',#43,#48);
#43 = PLANE('',#44);
#44 = AXIS2_PLACEMENT_3D('',#45,#46,#47);
#45 = CARTESIAN_POINT('',(-1.998401444325E-14,4.218847493576E-14,0.5));
#46 = DIRECTION('',(0.,0.,-1.));
#47 = DIRECTION('',(1.,0.,0.));
#48 = DEFINITIONAL_REPRESENTATION('',(#49),#53);
#49 = CIRCLE('',#50,12.8);
#50 = AXIS2_PLACEMENT_2D('',#51,#52);
#51 = CARTESIAN_POINT('',(1.998401444325E-14,4.218847493576E-14));
#52 = DIRECTION('',(-1.,0.));
#53 = ( GEOMETRIC_REPRESENTATION_CONTEXT(2) 
PARAMETRIC_REPRESENTATION_CONTEXT() REPRESENTATION_CONTEXT('2D SPACE',''
  ) );
#54 = ORIENTED_EDGE('',*,*,#55,.T.);
#55 = EDGE_CURVE('',#22,#56,#58,.T.);
#56 = VERTEX_POINT('',#57);
#57 = CARTESIAN_POINT('',(12.8,-1.567547902909E-15,7.6));
#58 = SEAM_CURVE('',#59,(#63,#70),.PCURVE_S1.);
#59 = LINE('',#60,#61);
#60 = CARTESIAN_POINT('',(12.8,-1.567547902909E-15,7.6));
#61 = VECTOR('',#62,1.);
#62 = DIRECTION('',(0.,0.,1.));
#63 = PCURVE('',#31,#64);
#64 = DEFINITIONAL_REPRESENTATION('',(#65),#69);
#65 = LINE('',#66,#67);
#66 = CARTESIAN_POINT('',(-3.14159265359,0.));
#67 = VECTOR('',#68,1.);
#68 = DIRECTION('',(0.,-1.));
#69 = ( GEOMETRIC_REPRESENTATION_CONTEXT(2) 
PARAMETRIC_REPRESENTATION_CONTEXT() REPRESENTATION_CONTEXT('2D SPACE',''
  ) );
#70 = PCURVE('',#31,#71);
#71 = DEFINITIONAL_REPRESENTATION('',(#72),#76);
#72 = LINE('',#73,#74);
#73 = CARTESIAN_POINT('',(3.14159265359,0.));
#74 = VECTOR('',#75,1.);
#75 = DIRECTION('',(0.,-1.));
#76 = ( GEOMETRIC_REPRESENTATION_CONTEXT(2) 
PARAMETRIC_REPRESENTATION_CONTEXT() REPRESENTATION_CONTEXT('2D SPACE',''
  ) );
#77 = ORIENTED_EDGE('',*,*,#78,.T.);
#78 = EDGE_CURVE('',#56,#56,#79,.T.);
#79 = SURFACE_CURVE('',#80,(#85,#92),.PCURVE_S1.);
#80 = CIRCLE('',#81,12.8);
#81 = AXIS2_PLACEMENT_3D('',#82,#83,#84);
#82 = CARTESIAN_POINT('',(0.,0.,7.6));
#83 = DIRECTION('',(0.,0.,-1.));
#84 = DIRECTION('',(-1.,0.,0.));
#85 = PCURVE('',#31,#86);
#86 = DEFINITIONAL_REPRESENTATION('',(#87),#91);
#87 = LINE('',#88,#89);
#88 = CARTESIAN_POINT('',(-6.28318530718,0.));
#89 = VECTOR('',#90,1.);
#90 = DIRECTION('',(1.,0.));
#91 = ( GEOMETRIC_REPRESENTATION_CONTEXT(2) 
PARAMETRIC_REPRESENTATION_CONTEXT() REPRESENTATION_CONTEXT('2D SPACE',''
  ) );
#92 = PCURVE('',#93,#98);
#93 = PLANE('',#94);
#94 = AXIS2_PLACEMENT_3D('',#95,#96,#97);
#95 = CARTESIAN_POINT('',(0.,0.,7.6));
#96 = DIRECTION('',(0.,0.,1.));
#97 = DIRECTION('',(-1.,0.,0.));
#98 = DEFINITIONAL_REPRESENTATION('',(#99),#107);
#99 = ( BOUNDED_CURVE() B_SPLINE_CURVE(2,(#100,#101,#102,#103,#104,#105,
#106),.UNSPECIFIED.,.T.,.F.) B_SPLINE_CURVE_WITH_KNOTS((1,2,2,2,2,1),(
    -2.094395102393,0.,2.094395102393,4.188790204786,6.28318530718,
8.377580409573),.UNSPECIFIED.) CURVE() GEOMETRIC_REPRESENTATION_ITEM() 
RATIONAL_B_SPLINE_CURVE((1.,0.5,1.,0.5,1.,0.5,1.)) REPRESENTATION_ITEM(
  '') );
#100 = CARTESIAN_POINT('',(12.8,0.));
#101 = CARTESIAN_POINT('',(12.8,-22.17025033688));
#102 = CARTESIAN_POINT('',(-6.4,-11.08512516844));
#103 = CARTESIAN_POINT('',(-25.6,-3.135095805817E-15));
#104 = CARTESIAN_POINT('',(-6.4,11.085125168441));
#105 = CARTESIAN_POINT('',(12.8,22.170250336882));
#106 = CARTESIAN_POINT('',(12.8,0.));
#107 = ( GEOMETRIC_REPRESENTATION_CONTEXT(2) 
PARAMETRIC_REPRESENTATION_CONTEXT() REPRESENTATION_CONTEXT('2D SPACE',''
  ) );
#108 = ORIENTED_EDGE('',*,*,#55,.F.);
#109 = ADVANCED_FACE('',(#110,#113),#43,.T.);
#110 = FACE_BOUND('',#111,.T.);
#111 = EDGE_LOOP('',(#112));
#112 = ORIENTED_EDGE('',*,*,#21,.T.);
#113 = FACE_BOUND('',#114,.T.);
#114 = EDGE_LOOP('',(#115));
#115 = ORIENTED_EDGE('',*,*,#116,.F.);
#116 = EDGE_CURVE('',#117,#117,#119,.T.);
#117 = VERTEX_POINT('',#118);
#118 = CARTESIAN_POINT('',(11.,-1.347111479062E-15,0.5));
#119 = SURFACE_CURVE('',#120,(#125,#132),.PCURVE_S1.);
#120 = CIRCLE('',#121,11.);
#121 = AXIS2_PLACEMENT_3D('',#122,#123,#124);
#122 = CARTESIAN_POINT('',(0.,0.,0.5));
#123 = DIRECTION('',(0.,0.,-1.));
#124 = DIRECTION('',(-1.,0.,0.));
#125 = PCURVE('',#43,#126);
#126 = DEFINITIONAL_REPRESENTATION('',(#127),#131);
#127 = CIRCLE('',#128,11.);
#128 = AXIS2_PLACEMENT_2D('',#129,#130);
#129 = CARTESIAN_POINT('',(1.998401444325E-14,4.218847493576E-14));
#130 = DIRECTION('',(-1.,0.));
#131 = ( GEOMETRIC_REPRESENTATION_CONTEXT(2) 
PARAMETRIC_REPRESENTATION_CONTEXT() REPRESENTATION_CONTEXT('2D SPACE',''
  ) );
#132 = PCURVE('',#133,#138);
#133 = CYLINDRICAL_SURFACE('',#134,11.);
#134 = AXIS2_PLACEMENT_3D('',#135,#136,#137);
#135 = CARTESIAN_POINT('',(0.,0.,7.6));
#136 = DIRECTION('',(0.,0.,-1.));
#137 = DIRECTION('',(-1.,0.,0.));
#138 = DEFINITIONAL_REPRESENTATION('',(#139),#143);
#139 = LINE('',#140,#141);
#140 = CARTESIAN_POINT('',(-6.28318530718,7.1));
#141 = VECTOR('',#142,1.);
#142 = DIRECTION('',(1.,0.));
#143 = ( GEOMETRIC_REPRESENTATION_CONTEXT(2) 
PARAMETRIC_REPRESENTATION_CONTEXT() REPRESENTATION_CONTEXT('2D SPACE',''
  ) );
#144 = ADVANCED_FACE('',(#145,#148),#93,.T.);
#145 = FACE_BOUND('',#146,.T.);
#146 = EDGE_LOOP('',(#147));
#147 = ORIENTED_EDGE('',*,*,#78,.F.);
#148 = FACE_BOUND('',#149,.T.);
#149 = EDGE_LOOP('',(#150));
#150 = ORIENTED_EDGE('',*,*,#151,.T.);
#151 = EDGE_CURVE('',#152,#152,#154,.T.);
#152 = VERTEX_POINT('',#153);
#153 = CARTESIAN_POINT('',(11.5,1.408343819019E-15,7.6));
#154 = SURFACE_CURVE('',#155,(#160,#171),.PCURVE_S1.);
#155 = CIRCLE('',#156,11.5);
#156 = AXIS2_PLACEMENT_3D('',#157,#158,#159);
#157 = CARTESIAN_POINT('',(0.,0.,7.6));
#158 = DIRECTION('',(0.,0.,-1.));
#159 = DIRECTION('',(-1.,0.,0.));
#160 = PCURVE('',#93,#161);
#161 = DEFINITIONAL_REPRESENTATION('',(#162),#170);
#162 = ( BOUNDED_CURVE() B_SPLINE_CURVE(2,(#163,#164,#165,#166,#167,#168
,#169),.UNSPECIFIED.,.T.,.F.) B_SPLINE_CURVE_WITH_KNOTS((1,2,2,2,2,1),(
    -2.094395102393,0.,2.094395102393,4.188790204786,6.28318530718,
8.377580409573),.UNSPECIFIED.) CURVE() GEOMETRIC_REPRESENTATION_ITEM() 
RATIONAL_B_SPLINE_CURVE((1.,0.5,1.,0.5,1.,0.5,1.)) REPRESENTATION_ITEM(
  '') );
#163 = CARTESIAN_POINT('',(11.5,0.));
#164 = CARTESIAN_POINT('',(11.5,-19.91858428704));
#165 = CARTESIAN_POINT('',(-5.75,-9.959292143521));
#166 = CARTESIAN_POINT('',(-23.,-2.816687638039E-15));
#167 = CARTESIAN_POINT('',(-5.75,9.959292143521));
#168 = CARTESIAN_POINT('',(11.5,19.918584287042));
#169 = CARTESIAN_POINT('',(11.5,0.));
#170 = ( GEOMETRIC_REPRESENTATION_CONTEXT(2) 
PARAMETRIC_REPRESENTATION_CONTEXT() REPRESENTATION_CONTEXT('2D SPACE',''
  ) );
#171 = PCURVE('',#172,#177);
#172 = CYLINDRICAL_SURFACE('',#173,11.5);
#173 = AXIS2_PLACEMENT_3D('',#174,#175,#176);
#174 = CARTESIAN_POINT('',(0.,0.,7.6));
#175 = DIRECTION('',(0.,0.,-1.));
#176 = DIRECTION('',(-1.,0.,0.));
#177 = DEFINITIONAL_REPRESENTATION('',(#178),#182);
#178 = LINE('',#179,#180);
#179 = CARTESIAN_POINT('',(0.,0.));
#180 = VECTOR('',#181,1.);
#181 = DIRECTION('',(1.,0.));
#182 = ( GEOMETRIC_REPRESENTATION_CONTEXT(2) 
PARAMETRIC_REPRESENTATION_CONTEXT() REPRESENTATION_CONTEXT('2D SPACE',''
  ) );
#183 = ADVANCED_FACE('',(#184),#197,.T.);
#184 = FACE_BOUND('',#185,.T.);
#185 = EDGE_LOOP('',(#186,#265,#289,#335,#379));
#186 = ORIENTED_EDGE('',*,*,#187,.T.);
#187 = EDGE_CURVE('',#188,#188,#190,.T.);
#188 = VERTEX_POINT('',#189);
#189 = CARTESIAN_POINT('',(-11.,-1.347111479062E-15,7.1));
#190 = SURFACE_CURVE('',#191,(#196,#253),.PCURVE_S1.);
#191 = CIRCLE('',#192,11.);
#192 = AXIS2_PLACEMENT_3D('',#193,#194,#195);
#193 = CARTESIAN_POINT('',(0.,0.,7.1));
#194 = DIRECTION('',(0.,0.,1.));
#195 = DIRECTION('',(-1.,0.,0.));
#196 = PCURVE('',#197,#225);
#197 = ( BOUNDED_SURFACE() B_SPLINE_SURFACE(2,2,(
    (#198,#199,#200,#201,#202,#203,#204,#205,#206)
    ,(#207,#208,#209,#210,#211,#212,#213,#214,#215)
    ,(#216,#217,#218,#219,#220,#221,#222,#223,#224
)),.UNSPECIFIED.,.F.,.T.,.F.) B_SPLINE_SURFACE_WITH_KNOTS((3,3),(1,2,2,2
    ,2,2,1),(-0.278495356948,0.278495438561),(-4.712388980385,
    -3.14159265359,-1.570796326795,0.,1.570796326795,3.14159265359,
4.712388980385),.UNSPECIFIED.) GEOMETRIC_REPRESENTATION_ITEM() 
RATIONAL_B_SPLINE_SURFACE((
    (1.,0.707106781187,1.,0.707106781187,1.,0.707106781187,1.
      ,0.707106781187,1.)
    ,(0.961470155652,0.67986206697,0.961470155652,0.67986206697
      ,0.961470155652,0.67986206697,0.961470155652,0.67986206697
      ,0.961470155652)
    ,(1.,0.707106781187,1.,0.707106781187,1.,0.707106781187,1.
,0.707106781187,1.))) REPRESENTATION_ITEM('') SURFACE() );
#198 = CARTESIAN_POINT('',(-10.99999999998,-1.857553561435E-12,
    0.502175999948));
#199 = CARTESIAN_POINT('',(-10.99999999998,-10.99999999999,
    0.502175999955));
#200 = CARTESIAN_POINT('',(7.417361128913E-12,-10.99999999999,
    0.502175999979));
#201 = CARTESIAN_POINT('',(11.,-10.99999999999,0.502176000004));
#202 = CARTESIAN_POINT('',(11.,-1.857553561435E-12,0.502175999998));
#203 = CARTESIAN_POINT('',(11.,10.999999999991,0.502175999992));
#204 = CARTESIAN_POINT('',(7.417361128941E-12,10.999999999991,
    0.502175999967));
#205 = CARTESIAN_POINT('',(-10.99999999998,10.999999999991,
    0.502175999942));
#206 = CARTESIAN_POINT('',(-10.99999999998,-1.857553561435E-12,
    0.502175999948));
#207 = CARTESIAN_POINT('',(-11.9432446163,1.949682585431E-15,
    3.801087999974));
#208 = CARTESIAN_POINT('',(-11.9432446163,-11.9432446163,3.801087999981)
  );
#209 = CARTESIAN_POINT('',(-7.19921805117E-14,-11.9432446163,
    3.801088000008));
#210 = CARTESIAN_POINT('',(11.943244616309,-11.9432446163,3.801088000035
    ));
#211 = CARTESIAN_POINT('',(11.943244616309,1.949682585431E-15,
    3.801088000028));
#212 = CARTESIAN_POINT('',(11.943244616309,11.943244616309,
    3.801088000021));
#213 = CARTESIAN_POINT('',(-7.199218048114E-14,11.943244616309,
    3.801087999994));
#214 = CARTESIAN_POINT('',(-11.9432446163,11.943244616309,3.801087999967
    ));
#215 = CARTESIAN_POINT('',(-11.9432446163,1.949682585431E-15,
    3.801087999974));
#216 = CARTESIAN_POINT('',(-10.99999973076,1.861452883214E-12,
    7.099999923022));
#217 = CARTESIAN_POINT('',(-10.99999973076,-10.99999973075,
    7.099999923029));
#218 = CARTESIAN_POINT('',(-7.561345315167E-12,-10.99999973075,
    7.099999923054));
#219 = CARTESIAN_POINT('',(10.99999973075,-10.99999973075,7.099999923079
    ));
#220 = CARTESIAN_POINT('',(10.99999973075,1.861452883214E-12,
    7.099999923072));
#221 = CARTESIAN_POINT('',(10.99999973075,10.99999973076,7.099999923066)
  );
#222 = CARTESIAN_POINT('',(-7.561345315139E-12,10.99999973076,
    7.099999923041));
#223 = CARTESIAN_POINT('',(-10.99999973076,10.99999973076,7.099999923016
    ));
#224 = CARTESIAN_POINT('',(-10.99999973076,1.861452883214E-12,
    7.099999923022));
#225 = DEFINITIONAL_REPRESENTATION('',(#226),#252);
#226 = B_SPLINE_CURVE_WITH_KNOTS('',3,(#227,#228,#229,#230,#231,#232,
    #233,#234,#235,#236,#237,#238,#239,#240,#241,#242,#243,#244,#245,
    #246,#247,#248,#249,#250,#251),.UNSPECIFIED.,.F.,.F.,(4,1,1,1,1,1,1,
    1,1,1,1,1,1,1,1,1,1,1,1,1,1,1,4),(0.,0.285599332145,0.571198664289,
    0.856797996434,1.142397328578,1.427996660723,1.713595992867,
    1.999195325012,2.284794657156,2.570393989301,2.855993321445,
    3.14159265359,3.427191985734,3.712791317879,3.998390650023,
    4.283989982168,4.569589314312,4.855188646457,5.140787978601,
    5.426387310746,5.711986642891,5.997585975035,6.28318530718),
  .QUASI_UNIFORM_KNOTS.);
#227 = CARTESIAN_POINT('',(0.27849543856,-3.14159265359));
#228 = CARTESIAN_POINT('',(0.27849543856,-3.036131210426));
#229 = CARTESIAN_POINT('',(0.27849543856,-2.836578914728));
#230 = CARTESIAN_POINT('',(0.27849543856,-2.558676880192));
#231 = CARTESIAN_POINT('',(0.278495438559,-2.289003793571));
#232 = CARTESIAN_POINT('',(0.278495438559,-2.016154537551));
#233 = CARTESIAN_POINT('',(0.278495438558,-1.730960070039));
#234 = CARTESIAN_POINT('',(0.278495438557,-1.410638332078));
#235 = CARTESIAN_POINT('',(0.278495438557,-1.125409373392));
#236 = CARTESIAN_POINT('',(0.278495438556,-0.852698082071));
#237 = CARTESIAN_POINT('',(0.278495438556,-0.582507627828));
#238 = CARTESIAN_POINT('',(0.278495438556,-0.306537099082));
#239 = CARTESIAN_POINT('',(0.278495438556,-2.007283228522E-13));
#240 = CARTESIAN_POINT('',(0.278495438556,0.306537099082));
#241 = CARTESIAN_POINT('',(0.278495438557,0.582507627828));
#242 = CARTESIAN_POINT('',(0.278495438557,0.852698082071));
#243 = CARTESIAN_POINT('',(0.278495438558,1.125409373392));
#244 = CARTESIAN_POINT('',(0.278495438558,1.410638332078));
#245 = CARTESIAN_POINT('',(0.278495438559,1.730960070039));
#246 = CARTESIAN_POINT('',(0.27849543856,2.016154537551));
#247 = CARTESIAN_POINT('',(0.27849543856,2.289003793571));
#248 = CARTESIAN_POINT('',(0.27849543856,2.558676880193));
#249 = CARTESIAN_POINT('',(0.278495438561,2.836578914728));
#250 = CARTESIAN_POINT('',(0.27849543856,3.036131210427));
#251 = CARTESIAN_POINT('',(0.27849543856,3.14159265359));
#252 = ( GEOMETRIC_REPRESENTATION_CONTEXT(2) 
PARAMETRIC_REPRESENTATION_CONTEXT() REPRESENTATION_CONTEXT('2D SPACE',''
  ) );
#253 = PCURVE('',#254,#259);
#254 = PLANE('',#255);
#255 = AXIS2_PLACEMENT_3D('',#256,#257,#258);
#256 = CARTESIAN_POINT('',(0.,0.,7.1));
#257 = DIRECTION('',(0.,0.,1.));
#258 = DIRECTION('',(-1.,0.,0.));
#259 = DEFINITIONAL_REPRESENTATION('',(#260),#264);
#260 = CIRCLE('',#261,11.);
#261 = AXIS2_PLACEMENT_2D('',#262,#263);
#262 = CARTESIAN_POINT('',(0.,0.));
#263 = DIRECTION('',(1.,0.));
#264 = ( GEOMETRIC_REPRESENTATION_CONTEXT(2) 
PARAMETRIC_REPRESENTATION_CONTEXT() REPRESENTATION_CONTEXT('2D SPACE',''
  ) );
#265 = ORIENTED_EDGE('',*,*,#266,.T.);
#266 = EDGE_CURVE('',#188,#267,#269,.T.);
#267 = VERTEX_POINT('',#268);
#268 = CARTESIAN_POINT('',(-11.,-1.858900672885E-12,0.502176));
#269 = SEAM_CURVE('',#270,(#275,#282),.PCURVE_S1.);
#270 = CIRCLE('',#271,12.000000000002);
#271 = AXIS2_PLACEMENT_3D('',#272,#273,#274);
#272 = CARTESIAN_POINT('',(0.537642002445,2.015237661867E-15,
    3.8010874907));
#273 = DIRECTION('',(1.224646786351E-16,-1.,5.636716723589E-13));
#274 = DIRECTION('',(-1.,-1.224646799147E-16,-2.270258657053E-12));
#275 = PCURVE('',#197,#276);
#276 = DEFINITIONAL_REPRESENTATION('',(#277),#281);
#277 = LINE('',#278,#279);
#278 = CARTESIAN_POINT('',(6.28318530718,3.14159265359));
#279 = VECTOR('',#280,1.);
#280 = DIRECTION('',(-1.,0.));
#281 = ( GEOMETRIC_REPRESENTATION_CONTEXT(2) 
PARAMETRIC_REPRESENTATION_CONTEXT() REPRESENTATION_CONTEXT('2D SPACE',''
  ) );
#282 = PCURVE('',#197,#283);
#283 = DEFINITIONAL_REPRESENTATION('',(#284),#288);
#284 = LINE('',#285,#286);
#285 = CARTESIAN_POINT('',(6.28318530718,-3.14159265359));
#286 = VECTOR('',#287,1.);
#287 = DIRECTION('',(-1.,0.));
#288 = ( GEOMETRIC_REPRESENTATION_CONTEXT(2) 
PARAMETRIC_REPRESENTATION_CONTEXT() REPRESENTATION_CONTEXT('2D SPACE',''
  ) );
#289 = ORIENTED_EDGE('',*,*,#290,.F.);
#290 = EDGE_CURVE('',#291,#267,#293,.T.);
#291 = VERTEX_POINT('',#292);
#292 = CARTESIAN_POINT('',(11.,0.,0.502176));
#293 = SURFACE_CURVE('',#294,(#299,#328),.PCURVE_S1.);
#294 = CIRCLE('',#295,11.);
#295 = AXIS2_PLACEMENT_3D('',#296,#297,#298);
#296 = CARTESIAN_POINT('',(0.,0.,0.502176));
#297 = DIRECTION('',(0.,0.,1.));
#298 = DIRECTION('',(-1.,0.,0.));
#299 = PCURVE('',#197,#300);
#300 = DEFINITIONAL_REPRESENTATION('',(#301),#327);
#301 = B_SPLINE_CURVE_WITH_KNOTS('',3,(#302,#303,#304,#305,#306,#307,
    #308,#309,#310,#311,#312,#313,#314,#315,#316,#317,#318,#319,#320,
    #321,#322,#323,#324,#325,#326),.UNSPECIFIED.,.F.,.F.,(4,1,1,1,1,1,1,
    1,1,1,1,1,1,1,1,1,1,1,1,1,1,1,4),(3.14159265359,3.284392319662,
    3.427191985734,3.569991651807,3.712791317879,3.855590983951,
    3.998390650023,4.141190316096,4.283989982168,4.42678964824,
    4.569589314312,4.712388980385,4.855188646457,4.997988312529,
    5.140787978601,5.283587644674,5.426387310746,5.569186976818,
    5.711986642891,5.854786308963,5.997585975035,6.140385641107,
    6.28318530718),.QUASI_UNIFORM_KNOTS.);
#302 = CARTESIAN_POINT('',(-0.278495356948,0.));
#303 = CARTESIAN_POINT('',(-0.278495356948,5.284349343605E-02));
#304 = CARTESIAN_POINT('',(-0.278495356948,0.155507960617));
#305 = CARTESIAN_POINT('',(-0.278495356948,0.302312086709));
#306 = CARTESIAN_POINT('',(-0.278495356948,0.443899716705));
#307 = CARTESIAN_POINT('',(-0.278495356948,0.581893099524));
#308 = CARTESIAN_POINT('',(-0.278495356948,0.717793577671));
#309 = CARTESIAN_POINT('',(-0.278495356948,0.853001221056));
#310 = CARTESIAN_POINT('',(-0.278495356948,0.988910867615));
#311 = CARTESIAN_POINT('',(-0.278495356948,1.126867576788));
#312 = CARTESIAN_POINT('',(-0.278495356948,1.268592732957));
#313 = CARTESIAN_POINT('',(-0.278495356948,1.414883428));
#314 = CARTESIAN_POINT('',(-0.278495356948,1.570796326794));
#315 = CARTESIAN_POINT('',(-0.278495356948,1.726709225592));
#316 = CARTESIAN_POINT('',(-0.278495356948,1.872999920634));
#317 = CARTESIAN_POINT('',(-0.278495356948,2.014725076803));
#318 = CARTESIAN_POINT('',(-0.278495356948,2.152681785975));
#319 = CARTESIAN_POINT('',(-0.278495356948,2.288591432535));
#320 = CARTESIAN_POINT('',(-0.278495356948,2.423799075919));
#321 = CARTESIAN_POINT('',(-0.278495356948,2.559699554067));
#322 = CARTESIAN_POINT('',(-0.278495356948,2.697692936885));
#323 = CARTESIAN_POINT('',(-0.278495356948,2.839280566881));
#324 = CARTESIAN_POINT('',(-0.278495356948,2.986084692973));
#325 = CARTESIAN_POINT('',(-0.278495356948,3.088749160154));
#326 = CARTESIAN_POINT('',(-0.278495356948,3.14159265359));
#327 = ( GEOMETRIC_REPRESENTATION_CONTEXT(2) 
PARAMETRIC_REPRESENTATION_CONTEXT() REPRESENTATION_CONTEXT('2D SPACE',''
  ) );
#328 = PCURVE('',#133,#329);
#329 = DEFINITIONAL_REPRESENTATION('',(#330),#334);
#330 = LINE('',#331,#332);
#331 = CARTESIAN_POINT('',(6.28318530718,7.097824));
#332 = VECTOR('',#333,1.);
#333 = DIRECTION('',(-1.,0.));
#334 = ( GEOMETRIC_REPRESENTATION_CONTEXT(2) 
PARAMETRIC_REPRESENTATION_CONTEXT() REPRESENTATION_CONTEXT('2D SPACE',''
  ) );
#335 = ORIENTED_EDGE('',*,*,#336,.F.);
#336 = EDGE_CURVE('',#267,#291,#337,.T.);
#337 = SURFACE_CURVE('',#338,(#343,#372),.PCURVE_S1.);
#338 = CIRCLE('',#339,11.);
#339 = AXIS2_PLACEMENT_3D('',#340,#341,#342);
#340 = CARTESIAN_POINT('',(0.,0.,0.502176));
#341 = DIRECTION('',(0.,0.,1.));
#342 = DIRECTION('',(-1.,0.,0.));
#343 = PCURVE('',#197,#344);
#344 = DEFINITIONAL_REPRESENTATION('',(#345),#371);
#345 = B_SPLINE_CURVE_WITH_KNOTS('',3,(#346,#347,#348,#349,#350,#351,
    #352,#353,#354,#355,#356,#357,#358,#359,#360,#361,#362,#363,#364,
    #365,#366,#367,#368,#369,#370),.UNSPECIFIED.,.F.,.F.,(4,1,1,1,1,1,1,
    1,1,1,1,1,1,1,1,1,1,1,1,1,1,1,4),(0.,0.142799666072,0.285599332145,
    0.428398998217,0.571198664289,0.713998330361,0.856797996434,
    0.999597662506,1.142397328578,1.28519699465,1.427996660723,
    1.570796326795,1.713595992867,1.856395658939,1.999195325012,
    2.141994991084,2.284794657156,2.427594323228,2.570393989301,
    2.713193655373,2.855993321445,2.998792987518,3.14159265359),
  .QUASI_UNIFORM_KNOTS.);
#346 = CARTESIAN_POINT('',(-0.278495356948,-3.14159265359));
#347 = CARTESIAN_POINT('',(-0.278495356948,-3.088749160154));
#348 = CARTESIAN_POINT('',(-0.278495356948,-2.986084692973));
#349 = CARTESIAN_POINT('',(-0.278495356948,-2.839280566881));
#350 = CARTESIAN_POINT('',(-0.278495356948,-2.697692936886));
#351 = CARTESIAN_POINT('',(-0.278495356948,-2.559699554067));
#352 = CARTESIAN_POINT('',(-0.278495356948,-2.42379907592));
#353 = CARTESIAN_POINT('',(-0.278495356948,-2.288591432535));
#354 = CARTESIAN_POINT('',(-0.278495356948,-2.152681785976));
#355 = CARTESIAN_POINT('',(-0.278495356948,-2.014725076803));
#356 = CARTESIAN_POINT('',(-0.278495356948,-1.872999920634));
#357 = CARTESIAN_POINT('',(-0.278495356948,-1.726709225591));
#358 = CARTESIAN_POINT('',(-0.278495356948,-1.570796326796));
#359 = CARTESIAN_POINT('',(-0.278495356948,-1.414883428));
#360 = CARTESIAN_POINT('',(-0.278495356948,-1.268592732957));
#361 = CARTESIAN_POINT('',(-0.278495356948,-1.126867576788));
#362 = CARTESIAN_POINT('',(-0.278495356948,-0.988910867615));
#363 = CARTESIAN_POINT('',(-0.278495356948,-0.853001221056));
#364 = CARTESIAN_POINT('',(-0.278495356948,-0.717793577671));
#365 = CARTESIAN_POINT('',(-0.278495356948,-0.581893099523));
#366 = CARTESIAN_POINT('',(-0.278495356948,-0.443899716705));
#367 = CARTESIAN_POINT('',(-0.278495356948,-0.302312086709));
#368 = CARTESIAN_POINT('',(-0.278495356948,-0.155507960617));
#369 = CARTESIAN_POINT('',(-0.278495356948,-5.284349343582E-02));
#370 = CARTESIAN_POINT('',(-0.278495356948,0.));
#371 = ( GEOMETRIC_REPRESENTATION_CONTEXT(2) 
PARAMETRIC_REPRESENTATION_CONTEXT() REPRESENTATION_CONTEXT('2D SPACE',''
  ) );
#372 = PCURVE('',#133,#373);
#373 = DEFINITIONAL_REPRESENTATION('',(#374),#378);
#374 = LINE('',#375,#376);
#375 = CARTESIAN_POINT('',(0.,7.097824));
#376 = VECTOR('',#377,1.);
#377 = DIRECTION('',(-1.,0.));
#378 = ( GEOMETRIC_REPRESENTATION_CONTEXT(2) 
PARAMETRIC_REPRESENTATION_CONTEXT() REPRESENTATION_CONTEXT('2D SPACE',''
  ) );
#379 = ORIENTED_EDGE('',*,*,#266,.F.);
#380 = ADVANCED_FACE('',(#381),#172,.F.);
#381 = FACE_BOUND('',#382,.F.);
#382 = EDGE_LOOP('',(#383,#406,#432,#433));
#383 = ORIENTED_EDGE('',*,*,#384,.T.);
#384 = EDGE_CURVE('',#152,#385,#387,.T.);
#385 = VERTEX_POINT('',#386);
#386 = CARTESIAN_POINT('',(11.5,1.408343819019E-15,7.1));
#387 = SEAM_CURVE('',#388,(#392,#399),.PCURVE_S1.);
#388 = LINE('',#389,#390);
#389 = CARTESIAN_POINT('',(11.5,-1.408343819019E-15,7.6));
#390 = VECTOR('',#391,1.);
#391 = DIRECTION('',(0.,0.,-1.));
#392 = PCURVE('',#172,#393);
#393 = DEFINITIONAL_REPRESENTATION('',(#394),#398);
#394 = LINE('',#395,#396);
#395 = CARTESIAN_POINT('',(9.424777960769,0.));
#396 = VECTOR('',#397,1.);
#397 = DIRECTION('',(0.,1.));
#398 = ( GEOMETRIC_REPRESENTATION_CONTEXT(2) 
PARAMETRIC_REPRESENTATION_CONTEXT() REPRESENTATION_CONTEXT('2D SPACE',''
  ) );
#399 = PCURVE('',#172,#400);
#400 = DEFINITIONAL_REPRESENTATION('',(#401),#405);
#401 = LINE('',#402,#403);
#402 = CARTESIAN_POINT('',(3.14159265359,0.));
#403 = VECTOR('',#404,1.);
#404 = DIRECTION('',(0.,1.));
#405 = ( GEOMETRIC_REPRESENTATION_CONTEXT(2) 
PARAMETRIC_REPRESENTATION_CONTEXT() REPRESENTATION_CONTEXT('2D SPACE',''
  ) );
#406 = ORIENTED_EDGE('',*,*,#407,.F.);
#407 = EDGE_CURVE('',#385,#385,#408,.T.);
#408 = SURFACE_CURVE('',#409,(#414,#421),.PCURVE_S1.);
#409 = CIRCLE('',#410,11.5);
#410 = AXIS2_PLACEMENT_3D('',#411,#412,#413);
#411 = CARTESIAN_POINT('',(0.,0.,7.1));
#412 = DIRECTION('',(0.,0.,-1.));
#413 = DIRECTION('',(-1.,0.,0.));
#414 = PCURVE('',#172,#415);
#415 = DEFINITIONAL_REPRESENTATION('',(#416),#420);
#416 = LINE('',#417,#418);
#417 = CARTESIAN_POINT('',(0.,0.5));
#418 = VECTOR('',#419,1.);
#419 = DIRECTION('',(1.,0.));
#420 = ( GEOMETRIC_REPRESENTATION_CONTEXT(2) 
PARAMETRIC_REPRESENTATION_CONTEXT() REPRESENTATION_CONTEXT('2D SPACE',''
  ) );
#421 = PCURVE('',#254,#422);
#422 = DEFINITIONAL_REPRESENTATION('',(#423),#431);
#423 = ( BOUNDED_CURVE() B_SPLINE_CURVE(2,(#424,#425,#426,#427,#428,#429
,#430),.UNSPECIFIED.,.T.,.F.) B_SPLINE_CURVE_WITH_KNOTS((1,2,2,2,2,1),(
    -2.094395102393,0.,2.094395102393,4.188790204786,6.28318530718,
8.377580409573),.UNSPECIFIED.) CURVE() GEOMETRIC_REPRESENTATION_ITEM() 
RATIONAL_B_SPLINE_CURVE((1.,0.5,1.,0.5,1.,0.5,1.)) REPRESENTATION_ITEM(
  '') );
#424 = CARTESIAN_POINT('',(11.5,0.));
#425 = CARTESIAN_POINT('',(11.5,-19.91858428704));
#426 = CARTESIAN_POINT('',(-5.75,-9.959292143521));
#427 = CARTESIAN_POINT('',(-23.,-2.816687638039E-15));
#428 = CARTESIAN_POINT('',(-5.75,9.959292143521));
#429 = CARTESIAN_POINT('',(11.5,19.918584287042));
#430 = CARTESIAN_POINT('',(11.5,0.));
#431 = ( GEOMETRIC_REPRESENTATION_CONTEXT(2) 
PARAMETRIC_REPRESENTATION_CONTEXT() REPRESENTATION_CONTEXT('2D SPACE',''
  ) );
#432 = ORIENTED_EDGE('',*,*,#384,.F.);
#433 = ORIENTED_EDGE('',*,*,#151,.T.);
#434 = ADVANCED_FACE('',(#435,#438),#254,.T.);
#435 = FACE_BOUND('',#436,.T.);
#436 = EDGE_LOOP('',(#437));
#437 = ORIENTED_EDGE('',*,*,#407,.F.);
#438 = FACE_BOUND('',#439,.T.);
#439 = EDGE_LOOP('',(#440));
#440 = ORIENTED_EDGE('',*,*,#187,.F.);
#441 = ADVANCED_FACE('',(#442),#133,.F.);
#442 = FACE_BOUND('',#443,.F.);
#443 = EDGE_LOOP('',(#444,#465,#466,#467,#468));
#444 = ORIENTED_EDGE('',*,*,#445,.T.);
#445 = EDGE_CURVE('',#291,#117,#446,.T.);
#446 = SEAM_CURVE('',#447,(#451,#458),.PCURVE_S1.);
#447 = LINE('',#448,#449);
#448 = CARTESIAN_POINT('',(11.,-1.347111479062E-15,7.6));
#449 = VECTOR('',#450,1.);
#450 = DIRECTION('',(0.,0.,-1.));
#451 = PCURVE('',#133,#452);
#452 = DEFINITIONAL_REPRESENTATION('',(#453),#457);
#453 = LINE('',#454,#455);
#454 = CARTESIAN_POINT('',(3.14159265359,0.));
#455 = VECTOR('',#456,1.);
#456 = DIRECTION('',(0.,1.));
#457 = ( GEOMETRIC_REPRESENTATION_CONTEXT(2) 
PARAMETRIC_REPRESENTATION_CONTEXT() REPRESENTATION_CONTEXT('2D SPACE',''
  ) );
#458 = PCURVE('',#133,#459);
#459 = DEFINITIONAL_REPRESENTATION('',(#460),#464);
#460 = LINE('',#461,#462);
#461 = CARTESIAN_POINT('',(-3.14159265359,0.));
#462 = VECTOR('',#463,1.);
#463 = DIRECTION('',(0.,1.));
#464 = ( GEOMETRIC_REPRESENTATION_CONTEXT(2) 
PARAMETRIC_REPRESENTATION_CONTEXT() REPRESENTATION_CONTEXT('2D SPACE',''
  ) );
#465 = ORIENTED_EDGE('',*,*,#116,.F.);
#466 = ORIENTED_EDGE('',*,*,#445,.F.);
#467 = ORIENTED_EDGE('',*,*,#336,.F.);
#468 = ORIENTED_EDGE('',*,*,#290,.F.);
#469 = ( GEOMETRIC_REPRESENTATION_CONTEXT(3) 
GLOBAL_UNCERTAINTY_ASSIGNED_CONTEXT((#473)) GLOBAL_UNIT_ASSIGNED_CONTEXT
((#470,#471,#472)) REPRESENTATION_CONTEXT('Context #1',
  '3D Context with UNIT and UNCERTAINTY') );
#470 = ( LENGTH_UNIT() NAMED_UNIT(*) SI_UNIT(.MILLI.,.METRE.) );
#471 = ( NAMED_UNIT(*) PLANE_ANGLE_UNIT() SI_UNIT($,.RADIAN.) );
#472 = ( NAMED_UNIT(*) SI_UNIT($,.STERADIAN.) SOLID_ANGLE_UNIT() );
#473 = UNCERTAINTY_MEASURE_WITH_UNIT(LENGTH_MEASURE(2.E-03),#470,
  'distance_accuracy_value','confusion accuracy');
#474 = PRODUCT_RELATED_PRODUCT_CATEGORY('part',$,(#7));
ENDSEC;
END-ISO-10303-21;
