ISO-10303-21;
HEADER;
FILE_DESCRIPTION(('Open CASCADE Model'),'2;1');
FILE_NAME('Open CASCADE Shape Model','2026-08-07T15:00:05',('Author'),(
    'Open CASCADE'),'Open CASCADE STEP processor 7.9','Open CASCADE 7.9'
  ,'Unknown');
FILE_SCHEMA(('AUTOMOTIVE_DESIGN { 1 0 10303 214 1 1 1 1 }'));
ENDSEC;
DATA;
#1 = APPLICATION_PROTOCOL_DEFINITION('international standard',
  'automotive_design',2000,#2);
#2 = APPLICATION_CONTEXT(
  'core data for automotive mechanical design processes');
#3 = SHAPE_DEFINITION_REPRESENTATION(#4,#10);
#4 = PRODUCT_DEFINITION_SHAPE('','',#5);
#5 = PRODUCT_DEFINITION('design','',#6,#9);
#6 = PRODUCT_DEFINITION_FORMATION('','',#7);
#7 = PRODUCT('Open CASCADE STEP translator 7.9 12',
  'Open CASCADE STEP translator 7.9 12','',(#8));
#8 = PRODUCT_CONTEXT('',#2,'mechanical');
#9 = PRODUCT_DEFINITION_CONTEXT('part definition',#2,'design');
#10 = ADVANCED_BREP_SHAPE_REPRESENTATION('',(#11,#15),#680);
#11 = AXIS2_PLACEMENT_3D('',#12,#13,#14);
#12 = CARTESIAN_POINT('',(0.,0.,0.));
#13 = DIRECTION('',(0.,0.,1.));
#14 = DIRECTION('',(1.,0.,-0.));
#15 = MANIFOLD_SOLID_BREP('',#16);
#16 = CLOSED_SHELL('',(#17,#222,#343,#480,#582,#587,#617,#676));
#17 = ADVANCED_FACE('',(#18),#37,.T.);
#18 = FACE_BOUND('',#19,.T.);
#19 = EDGE_LOOP('',(#20,#87,#116,#171,#200));
#20 = ORIENTED_EDGE('',*,*,#21,.T.);
#21 = EDGE_CURVE('',#22,#24,#26,.T.);
#22 = VERTEX_POINT('',#23);
#23 = CARTESIAN_POINT('',(-3.,30.075735931288,4.));
#24 = VERTEX_POINT('',#25);
#25 = CARTESIAN_POINT('',(-2.851147334486,30.287867965644,4.));
#26 = SURFACE_CURVE('',#27,(#36,#70),.PCURVE_S1.);
#27 = B_SPLINE_CURVE_WITH_KNOTS('',3,(#28,#29,#30,#31,#32,#33,#34,#35),
  .UNSPECIFIED.,.F.,.F.,(4,2,2,4),(0.267847277907,0.277080570479,
    0.28926026582,0.293587474987),.UNSPECIFIED.);
#28 = CARTESIAN_POINT('',(-3.,30.075735931288,4.));
#29 = CARTESIAN_POINT('',(-3.,30.106513573195,4.));
#30 = CARTESIAN_POINT('',(-2.989935783391,30.142049057033,4.));
#31 = CARTESIAN_POINT('',(-2.955619675876,30.204635218106,4.));
#32 = CARTESIAN_POINT('',(-2.92154574104,30.239455996706,4.));
#33 = CARTESIAN_POINT('',(-2.87710896626,30.2719044979,4.));
#34 = CARTESIAN_POINT('',(-2.864467503136,30.280136544119,4.));
#35 = CARTESIAN_POINT('',(-2.851147334486,30.287867965644,4.));
#36 = PCURVE('',#37,#42);
#37 = TOROIDAL_SURFACE('',#38,4.7,0.3);
#38 = AXIS2_PLACEMENT_3D('',#39,#40,#41);
#39 = CARTESIAN_POINT('',(0.,30.075735931288,0.));
#40 = DIRECTION('',(0.,1.,0.));
#41 = DIRECTION('',(1.408839003529E-14,0.,-1.));
#42 = DEFINITIONAL_REPRESENTATION('',(#43),#69);
#43 = B_SPLINE_CURVE_WITH_KNOTS('',3,(#44,#45,#46,#47,#48,#49,#50,#51,
    #52,#53,#54,#55,#56,#57,#58,#59,#60,#61,#62,#63,#64,#65,#66,#67,#68)
  ,.UNSPECIFIED.,.F.,.F.,(4,1,1,1,1,1,1,1,1,1,1,1,1,1,1,1,1,1,1,1,1,1,4)
  ,(0.267847277907,0.269017286865,0.270187295823,0.271357304782,
    0.27252731374,0.273697322698,0.274867331656,0.276037340614,
    0.277207349572,0.278377358531,0.279547367489,0.280717376447,
    0.281887385405,0.283057394363,0.284227403322,0.28539741228,
    0.286567421238,0.287737430196,0.288907439154,0.290077448112,
    0.291247457071,0.292417466029,0.293587474987),
  .QUASI_UNIFORM_KNOTS.);
#44 = CARTESIAN_POINT('',(2.498091544797,0.));
#45 = CARTESIAN_POINT('',(2.498091551516,1.299790883743E-02));
#46 = CARTESIAN_POINT('',(2.498143251914,3.951150232021E-02));
#47 = CARTESIAN_POINT('',(2.498365584111,8.035771618236E-02));
#48 = CARTESIAN_POINT('',(2.498722414888,0.121812259854));
#49 = CARTESIAN_POINT('',(2.499203474314,0.163372604656));
#50 = CARTESIAN_POINT('',(2.499798824695,0.204540779887));
#51 = CARTESIAN_POINT('',(2.500497446684,0.244761715743));
#52 = CARTESIAN_POINT('',(2.501292464988,0.283688410409));
#53 = CARTESIAN_POINT('',(2.50216155834,0.320238225017));
#54 = CARTESIAN_POINT('',(2.503141982502,0.356241059459));
#55 = CARTESIAN_POINT('',(2.504243759176,0.392665302586));
#56 = CARTESIAN_POINT('',(2.505447647162,0.429032674664));
#57 = CARTESIAN_POINT('',(2.506742192724,0.465235038182));
#58 = CARTESIAN_POINT('',(2.508113781045,0.50105138193));
#59 = CARTESIAN_POINT('',(2.509549265236,0.536280973991));
#60 = CARTESIAN_POINT('',(2.511035299915,0.570713213107));
#61 = CARTESIAN_POINT('',(2.512558294851,0.604134718643));
#62 = CARTESIAN_POINT('',(2.514105199829,0.636349512589));
#63 = CARTESIAN_POINT('',(2.515660360711,0.667106909153));
#64 = CARTESIAN_POINT('',(2.517217275783,0.696381516622));
#65 = CARTESIAN_POINT('',(2.518859337111,0.726106375172));
#66 = CARTESIAN_POINT('',(2.520563020848,0.755781318511));
#67 = CARTESIAN_POINT('',(2.521739319293,0.775543757546));
#68 = CARTESIAN_POINT('',(2.522336373456,0.785398163398));
#69 = ( GEOMETRIC_REPRESENTATION_CONTEXT(2) 
PARAMETRIC_REPRESENTATION_CONTEXT() REPRESENTATION_CONTEXT('2D SPACE',''
  ) );
#70 = PCURVE('',#71,#76);
#71 = PLANE('',#72);
#72 = AXIS2_PLACEMENT_3D('',#73,#74,#75);
#73 = CARTESIAN_POINT('',(-3.,31.,4.));
#74 = DIRECTION('',(0.,0.,-1.));
#75 = DIRECTION('',(1.,0.,0.));
#76 = DEFINITIONAL_REPRESENTATION('',(#77),#86);
#77 = B_SPLINE_CURVE_WITH_KNOTS('',3,(#78,#79,#80,#81,#82,#83,#84,#85),
  .UNSPECIFIED.,.F.,.F.,(4,2,2,4),(0.267847277907,0.277080570479,
    0.28926026582,0.293587474987),.UNSPECIFIED.);
#78 = CARTESIAN_POINT('',(0.,0.924264068712));
#79 = CARTESIAN_POINT('',(0.,0.893486426805));
#80 = CARTESIAN_POINT('',(1.006421660943E-02,0.857950942967));
#81 = CARTESIAN_POINT('',(4.43803241241E-02,0.795364781894));
#82 = CARTESIAN_POINT('',(7.845425896042E-02,0.760544003294));
#83 = CARTESIAN_POINT('',(0.12289103374,0.7280955021));
#84 = CARTESIAN_POINT('',(0.135532496864,0.719863455881));
#85 = CARTESIAN_POINT('',(0.148852665514,0.712132034356));
#86 = ( GEOMETRIC_REPRESENTATION_CONTEXT(2) 
PARAMETRIC_REPRESENTATION_CONTEXT() REPRESENTATION_CONTEXT('2D SPACE',''
  ) );
#87 = ORIENTED_EDGE('',*,*,#88,.T.);
#88 = EDGE_CURVE('',#24,#89,#91,.T.);
#89 = VERTEX_POINT('',#90);
#90 = CARTESIAN_POINT('',(2.851147334486,30.287867965644,4.));
#91 = SURFACE_CURVE('',#92,(#97,#104),.PCURVE_S1.);
#92 = CIRCLE('',#93,4.912132034356);
#93 = AXIS2_PLACEMENT_3D('',#94,#95,#96);
#94 = CARTESIAN_POINT('',(2.445748698109E-16,30.287867965644,0.));
#95 = DIRECTION('',(0.,-1.,0.));
#96 = DIRECTION('',(-1.110223024625E-16,-0.,-1.));
#97 = PCURVE('',#37,#98);
#98 = DEFINITIONAL_REPRESENTATION('',(#99),#103);
#99 = LINE('',#100,#101);
#100 = CARTESIAN_POINT('',(6.28318530718,0.785398163397));
#101 = VECTOR('',#102,1.);
#102 = DIRECTION('',(-1.,-4.841722697812E-16));
#103 = ( GEOMETRIC_REPRESENTATION_CONTEXT(2) 
PARAMETRIC_REPRESENTATION_CONTEXT() REPRESENTATION_CONTEXT('2D SPACE',''
  ) );
#104 = PCURVE('',#105,#110);
#105 = CONICAL_SURFACE('',#106,4.6,0.785398163397);
#106 = AXIS2_PLACEMENT_3D('',#107,#108,#109);
#107 = CARTESIAN_POINT('',(0.,30.6,0.));
#108 = DIRECTION('',(0.,-1.,0.));
#109 = DIRECTION('',(1.032123937051E-13,0.,-1.));
#110 = DEFINITIONAL_REPRESENTATION('',(#111),#115);
#111 = LINE('',#112,#113);
#112 = CARTESIAN_POINT('',(-1.034727858951E-13,0.312132034356));
#113 = VECTOR('',#114,1.);
#114 = DIRECTION('',(1.,8.559037380619E-17));
#115 = ( GEOMETRIC_REPRESENTATION_CONTEXT(2) 
PARAMETRIC_REPRESENTATION_CONTEXT() REPRESENTATION_CONTEXT('2D SPACE',''
  ) );
#116 = ORIENTED_EDGE('',*,*,#117,.T.);
#117 = EDGE_CURVE('',#89,#118,#120,.T.);
#118 = VERTEX_POINT('',#119);
#119 = CARTESIAN_POINT('',(3.,30.075735931288,4.));
#120 = SURFACE_CURVE('',#121,(#130,#159),.PCURVE_S1.);
#121 = B_SPLINE_CURVE_WITH_KNOTS('',3,(#122,#123,#124,#125,#126,#127,
    #128,#129),.UNSPECIFIED.,.F.,.F.,(4,2,2,4),(0.242107080827,
    0.246434289994,0.258613985335,0.267847277907),.UNSPECIFIED.);
#122 = CARTESIAN_POINT('',(2.851147334486,30.287867965644,4.));
#123 = CARTESIAN_POINT('',(2.864467503136,30.280136544119,4.));
#124 = CARTESIAN_POINT('',(2.87710896626,30.2719044979,4.));
#125 = CARTESIAN_POINT('',(2.92154574104,30.239455996706,4.));
#126 = CARTESIAN_POINT('',(2.955619675876,30.204635218106,4.));
#127 = CARTESIAN_POINT('',(2.989935783391,30.142049057033,4.));
#128 = CARTESIAN_POINT('',(3.,30.106513573195,4.));
#129 = CARTESIAN_POINT('',(3.,30.075735931288,4.));
#130 = PCURVE('',#37,#131);
#131 = DEFINITIONAL_REPRESENTATION('',(#132),#158);
#132 = B_SPLINE_CURVE_WITH_KNOTS('',3,(#133,#134,#135,#136,#137,#138,
    #139,#140,#141,#142,#143,#144,#145,#146,#147,#148,#149,#150,#151,
    #152,#153,#154,#155,#156,#157),.UNSPECIFIED.,.F.,.F.,(4,1,1,1,1,1,1,
    1,1,1,1,1,1,1,1,1,1,1,1,1,1,1,4),(0.242107080827,0.243277089785,
    0.244447098743,0.245617107702,0.24678711666,0.247957125618,
    0.249127134576,0.250297143534,0.251467152493,0.252637161451,
    0.253807170409,0.254977179367,0.256147188325,0.257317197283,
    0.258487206242,0.2596572152,0.260827224158,0.261997233116,
    0.263167242074,0.264337251032,0.265507259991,0.266677268949,
    0.267847277907),.QUASI_UNIFORM_KNOTS.);
#133 = CARTESIAN_POINT('',(-2.522336373456,0.785398163398));
#134 = CARTESIAN_POINT('',(-2.521739319293,0.775543757546));
#135 = CARTESIAN_POINT('',(-2.520563020848,0.755781318511));
#136 = CARTESIAN_POINT('',(-2.518859337111,0.726106375173));
#137 = CARTESIAN_POINT('',(-2.517217275783,0.696381516622));
#138 = CARTESIAN_POINT('',(-2.515660360711,0.667106909153));
#139 = CARTESIAN_POINT('',(-2.514105199829,0.636349512589));
#140 = CARTESIAN_POINT('',(-2.512558294851,0.604134718643));
#141 = CARTESIAN_POINT('',(-2.511035299915,0.570713213107));
#142 = CARTESIAN_POINT('',(-2.509549265236,0.536280973991));
#143 = CARTESIAN_POINT('',(-2.508113781045,0.50105138193));
#144 = CARTESIAN_POINT('',(-2.506742192724,0.465235038182));
#145 = CARTESIAN_POINT('',(-2.505447647162,0.429032674664));
#146 = CARTESIAN_POINT('',(-2.504243759176,0.392665302586));
#147 = CARTESIAN_POINT('',(-2.503141982502,0.356241059459));
#148 = CARTESIAN_POINT('',(-2.50216155834,0.320238225017));
#149 = CARTESIAN_POINT('',(-2.501292464988,0.283688410409));
#150 = CARTESIAN_POINT('',(-2.500497446684,0.244761715744));
#151 = CARTESIAN_POINT('',(-2.499798824695,0.204540779887));
#152 = CARTESIAN_POINT('',(-2.499203474314,0.163372604656));
#153 = CARTESIAN_POINT('',(-2.498722414888,0.121812259854));
#154 = CARTESIAN_POINT('',(-2.498365584111,8.035771618239E-02));
#155 = CARTESIAN_POINT('',(-2.498143251914,3.951150232027E-02));
#156 = CARTESIAN_POINT('',(-2.498091551516,1.299790883747E-02));
#157 = CARTESIAN_POINT('',(-2.498091544796,0.));
#158 = ( GEOMETRIC_REPRESENTATION_CONTEXT(2) 
PARAMETRIC_REPRESENTATION_CONTEXT() REPRESENTATION_CONTEXT('2D SPACE',''
  ) );
#159 = PCURVE('',#71,#160);
#160 = DEFINITIONAL_REPRESENTATION('',(#161),#170);
#161 = B_SPLINE_CURVE_WITH_KNOTS('',3,(#162,#163,#164,#165,#166,#167,
    #168,#169),.UNSPECIFIED.,.F.,.F.,(4,2,2,4),(0.242107080827,
    0.246434289994,0.258613985335,0.267847277907),.UNSPECIFIED.);
#162 = CARTESIAN_POINT('',(5.851147334486,0.712132034356));
#163 = CARTESIAN_POINT('',(5.864467503136,0.719863455881));
#164 = CARTESIAN_POINT('',(5.87710896626,0.7280955021));
#165 = CARTESIAN_POINT('',(5.92154574104,0.760544003294));
#166 = CARTESIAN_POINT('',(5.955619675876,0.795364781894));
#167 = CARTESIAN_POINT('',(5.989935783391,0.857950942967));
#168 = CARTESIAN_POINT('',(6.,0.893486426805));
#169 = CARTESIAN_POINT('',(6.,0.924264068712));
#170 = ( GEOMETRIC_REPRESENTATION_CONTEXT(2) 
PARAMETRIC_REPRESENTATION_CONTEXT() REPRESENTATION_CONTEXT('2D SPACE',''
  ) );
#171 = ORIENTED_EDGE('',*,*,#172,.T.);
#172 = EDGE_CURVE('',#118,#173,#175,.T.);
#173 = VERTEX_POINT('',#174);
#174 = CARTESIAN_POINT('',(5.,30.075735931288,-6.123233995737E-16));
#175 = SURFACE_CURVE('',#176,(#181,#188),.PCURVE_S1.);
#176 = CIRCLE('',#177,5.);
#177 = AXIS2_PLACEMENT_3D('',#178,#179,#180);
#178 = CARTESIAN_POINT('',(0.,30.075735931288,0.));
#179 = DIRECTION('',(0.,1.,0.));
#180 = DIRECTION('',(-6.123233995737E-17,0.,-1.));
#181 = PCURVE('',#37,#182);
#182 = DEFINITIONAL_REPRESENTATION('',(#183),#187);
#183 = LINE('',#184,#185);
#184 = CARTESIAN_POINT('',(-6.28318530718,0.));
#185 = VECTOR('',#186,1.);
#186 = DIRECTION('',(1.,0.));
#187 = ( GEOMETRIC_REPRESENTATION_CONTEXT(2) 
PARAMETRIC_REPRESENTATION_CONTEXT() REPRESENTATION_CONTEXT('2D SPACE',''
  ) );
#188 = PCURVE('',#189,#194);
#189 = CYLINDRICAL_SURFACE('',#190,5.);
#190 = AXIS2_PLACEMENT_3D('',#191,#192,#193);
#191 = CARTESIAN_POINT('',(0.,0.,0.));
#192 = DIRECTION('',(0.,1.,0.));
#193 = DIRECTION('',(-1.,0.,0.));
#194 = DEFINITIONAL_REPRESENTATION('',(#195),#199);
#195 = LINE('',#196,#197);
#196 = CARTESIAN_POINT('',(-1.570796326795,30.075735931288));
#197 = VECTOR('',#198,1.);
#198 = DIRECTION('',(1.,0.));
#199 = ( GEOMETRIC_REPRESENTATION_CONTEXT(2) 
PARAMETRIC_REPRESENTATION_CONTEXT() REPRESENTATION_CONTEXT('2D SPACE',''
  ) );
#200 = ORIENTED_EDGE('',*,*,#201,.T.);
#201 = EDGE_CURVE('',#173,#22,#202,.T.);
#202 = SURFACE_CURVE('',#203,(#208,#215),.PCURVE_S1.);
#203 = CIRCLE('',#204,5.);
#204 = AXIS2_PLACEMENT_3D('',#205,#206,#207);
#205 = CARTESIAN_POINT('',(0.,30.075735931288,0.));
#206 = DIRECTION('',(0.,1.,0.));
#207 = DIRECTION('',(-6.123233995737E-17,0.,-1.));
#208 = PCURVE('',#37,#209);
#209 = DEFINITIONAL_REPRESENTATION('',(#210),#214);
#210 = LINE('',#211,#212);
#211 = CARTESIAN_POINT('',(-6.28318530718,0.));
#212 = VECTOR('',#213,1.);
#213 = DIRECTION('',(1.,0.));
#214 = ( GEOMETRIC_REPRESENTATION_CONTEXT(2) 
PARAMETRIC_REPRESENTATION_CONTEXT() REPRESENTATION_CONTEXT('2D SPACE',''
  ) );
#215 = PCURVE('',#189,#216);
#216 = DEFINITIONAL_REPRESENTATION('',(#217),#221);
#217 = LINE('',#218,#219);
#218 = CARTESIAN_POINT('',(-7.853981633974,30.075735931288));
#219 = VECTOR('',#220,1.);
#220 = DIRECTION('',(1.,0.));
#221 = ( GEOMETRIC_REPRESENTATION_CONTEXT(2) 
PARAMETRIC_REPRESENTATION_CONTEXT() REPRESENTATION_CONTEXT('2D SPACE',''
  ) );
#222 = ADVANCED_FACE('',(#223),#105,.T.);
#223 = FACE_BOUND('',#224,.T.);
#224 = EDGE_LOOP('',(#225,#226,#271,#300));
#225 = ORIENTED_EDGE('',*,*,#88,.F.);
#226 = ORIENTED_EDGE('',*,*,#227,.T.);
#227 = EDGE_CURVE('',#24,#228,#230,.T.);
#228 = VERTEX_POINT('',#229);
#229 = CARTESIAN_POINT('',(-1.54460729339,30.912132034356,4.));
#230 = SURFACE_CURVE('',#231,(#235,#264),.PCURVE_S1.);
#231 = ( BOUNDED_CURVE() B_SPLINE_CURVE(2,(#232,#233,#234),
.UNSPECIFIED.,.F.,.F.) B_SPLINE_CURVE_WITH_KNOTS((3,3),(3.654095980112,
4.076046227477),.PIECEWISE_BEZIER_KNOTS.) CURVE() 
GEOMETRIC_REPRESENTATION_ITEM() RATIONAL_B_SPLINE_CURVE((1.18309426004,
1.117337847169,1.033953833285)) REPRESENTATION_ITEM('') );
#232 = CARTESIAN_POINT('',(-2.851147334486,30.287867965644,4.));
#233 = CARTESIAN_POINT('',(-2.153549813831,30.6927742869,4.));
#234 = CARTESIAN_POINT('',(-1.54460729339,30.912132034356,4.));
#235 = PCURVE('',#105,#236);
#236 = DEFINITIONAL_REPRESENTATION('',(#237),#263);
#237 = B_SPLINE_CURVE_WITH_KNOTS('',3,(#238,#239,#240,#241,#242,#243,
    #244,#245,#246,#247,#248,#249,#250,#251,#252,#253,#254,#255,#256,
    #257,#258,#259,#260,#261,#262),.UNSPECIFIED.,.F.,.F.,(4,1,1,1,1,1,1,
    1,1,1,1,1,1,1,1,1,1,1,1,1,1,1,4),(3.654095980112,3.673275536811,
    3.692455093509,3.711634650208,3.730814206906,3.749993763604,
    3.769173320303,3.788352877001,3.8075324337,3.826711990398,
    3.845891547096,3.865071103795,3.884250660493,3.903430217192,
    3.92260977389,3.941789330589,3.960968887287,3.980148443985,
    3.999328000684,4.018507557382,4.037687114081,4.056866670779,
    4.076046227477),.QUASI_UNIFORM_KNOTS.);
#238 = CARTESIAN_POINT('',(3.760848933724,0.312132034356));
#239 = CARTESIAN_POINT('',(3.757539327956,0.300544127781));
#240 = CARTESIAN_POINT('',(3.75087997679,0.27755310777));
#241 = CARTESIAN_POINT('',(3.740768801843,0.243623345704));
#242 = CARTESIAN_POINT('',(3.730533755956,0.210252638486));
#243 = CARTESIAN_POINT('',(3.720173093404,0.177443628733));
#244 = CARTESIAN_POINT('',(3.709685054047,0.145199203032));
#245 = CARTESIAN_POINT('',(3.699067861761,0.113522533363));
#246 = CARTESIAN_POINT('',(3.688319725648,8.241707818475E-02));
#247 = CARTESIAN_POINT('',(3.677438840585,5.188659508812E-02));
#248 = CARTESIAN_POINT('',(3.666423388026,2.193515115744E-02));
#249 = CARTESIAN_POINT('',(3.655271536821,-7.432865200735E-03));
#250 = CARTESIAN_POINT('',(3.643981444116,-3.621273191029E-02));
#251 = CARTESIAN_POINT('',(3.632551256329,-6.439938004649E-02));
#252 = CARTESIAN_POINT('',(3.620979110197,-9.198737984761E-02));
#253 = CARTESIAN_POINT('',(3.609263133908,-0.118970925832));
#254 = CARTESIAN_POINT('',(3.597401448317,-0.145343821008));
#255 = CARTESIAN_POINT('',(3.585392168252,-0.171099459952));
#256 = CARTESIAN_POINT('',(3.573233403904,-0.196230811277));
#257 = CARTESIAN_POINT('',(3.560923262332,-0.220730397225));
#258 = CARTESIAN_POINT('',(3.548459849009,-0.244590278437));
#259 = CARTESIAN_POINT('',(3.535841269702,-0.267802013495));
#260 = CARTESIAN_POINT('',(3.523065631583,-0.290356706261));
#261 = CARTESIAN_POINT('',(3.514442575679,-0.304948714582));
#262 = CARTESIAN_POINT('',(3.510104242002,-0.312132034356));
#263 = ( GEOMETRIC_REPRESENTATION_CONTEXT(2) 
PARAMETRIC_REPRESENTATION_CONTEXT() REPRESENTATION_CONTEXT('2D SPACE',''
  ) );
#264 = PCURVE('',#71,#265);
#265 = DEFINITIONAL_REPRESENTATION('',(#266),#270);
#266 = ( BOUNDED_CURVE() B_SPLINE_CURVE(2,(#267,#268,#269),
.UNSPECIFIED.,.F.,.F.) B_SPLINE_CURVE_WITH_KNOTS((3,3),(3.654095980112,
4.076046227477),.PIECEWISE_BEZIER_KNOTS.) CURVE() 
GEOMETRIC_REPRESENTATION_ITEM() RATIONAL_B_SPLINE_CURVE((1.18309426004,
1.117337847169,1.033953833285)) REPRESENTATION_ITEM('') );
#267 = CARTESIAN_POINT('',(0.148852665514,0.712132034356));
#268 = CARTESIAN_POINT('',(0.846450186169,0.3072257131));
#269 = CARTESIAN_POINT('',(1.45539270661,8.7867965644E-02));
#270 = ( GEOMETRIC_REPRESENTATION_CONTEXT(2) 
PARAMETRIC_REPRESENTATION_CONTEXT() REPRESENTATION_CONTEXT('2D SPACE',''
  ) );
#271 = ORIENTED_EDGE('',*,*,#272,.F.);
#272 = EDGE_CURVE('',#273,#228,#275,.T.);
#273 = VERTEX_POINT('',#274);
#274 = CARTESIAN_POINT('',(1.544607293389,30.912132034356,4.));
#275 = SURFACE_CURVE('',#276,(#281,#288),.PCURVE_S1.);
#276 = CIRCLE('',#277,4.287867965644);
#277 = AXIS2_PLACEMENT_3D('',#278,#279,#280);
#278 = CARTESIAN_POINT('',(-2.625561889646E-16,30.912132034356,0.));
#279 = DIRECTION('',(0.,1.,0.));
#280 = DIRECTION('',(2.22044604925E-16,0.,-1.));
#281 = PCURVE('',#105,#282);
#282 = DEFINITIONAL_REPRESENTATION('',(#283),#287);
#283 = LINE('',#284,#285);
#284 = CARTESIAN_POINT('',(12.566370614359,-0.312132034356));
#285 = VECTOR('',#286,1.);
#286 = DIRECTION('',(-1.,-7.077382619643E-17));
#287 = ( GEOMETRIC_REPRESENTATION_CONTEXT(2) 
PARAMETRIC_REPRESENTATION_CONTEXT() REPRESENTATION_CONTEXT('2D SPACE',''
  ) );
#288 = PCURVE('',#289,#294);
#289 = TOROIDAL_SURFACE('',#290,4.075735931288,0.3);
#290 = AXIS2_PLACEMENT_3D('',#291,#292,#293);
#291 = CARTESIAN_POINT('',(0.,30.7,0.));
#292 = DIRECTION('',(0.,-1.,0.));
#293 = DIRECTION('',(0.,0.,-1.));
#294 = DEFINITIONAL_REPRESENTATION('',(#295),#299);
#295 = LINE('',#296,#297);
#296 = CARTESIAN_POINT('',(6.28318530718,5.497787143782));
#297 = VECTOR('',#298,1.);
#298 = DIRECTION('',(-1.,0.));
#299 = ( GEOMETRIC_REPRESENTATION_CONTEXT(2) 
PARAMETRIC_REPRESENTATION_CONTEXT() REPRESENTATION_CONTEXT('2D SPACE',''
  ) );
#300 = ORIENTED_EDGE('',*,*,#301,.T.);
#301 = EDGE_CURVE('',#273,#89,#302,.T.);
#302 = SURFACE_CURVE('',#303,(#307,#336),.PCURVE_S1.);
#303 = ( BOUNDED_CURVE() B_SPLINE_CURVE(2,(#304,#305,#306),
.UNSPECIFIED.,.F.,.F.) B_SPLINE_CURVE_WITH_KNOTS((3,3),(
8.413544396215E-02,0.506085691326),.PIECEWISE_BEZIER_KNOTS.) CURVE() 
GEOMETRIC_REPRESENTATION_ITEM() RATIONAL_B_SPLINE_CURVE((1.033953833285,
1.117337847169,1.18309426004)) REPRESENTATION_ITEM('') );
#304 = CARTESIAN_POINT('',(1.544607293389,30.912132034356,4.));
#305 = CARTESIAN_POINT('',(2.153549813832,30.692774286899,4.));
#306 = CARTESIAN_POINT('',(2.851147334486,30.287867965644,4.));
#307 = PCURVE('',#105,#308);
#308 = DEFINITIONAL_REPRESENTATION('',(#309),#335);
#309 = B_SPLINE_CURVE_WITH_KNOTS('',3,(#310,#311,#312,#313,#314,#315,
    #316,#317,#318,#319,#320,#321,#322,#323,#324,#325,#326,#327,#328,
    #329,#330,#331,#332,#333,#334),.UNSPECIFIED.,.F.,.F.,(4,1,1,1,1,1,1,
    1,1,1,1,1,1,1,1,1,1,1,1,1,1,1,4),(8.413544396215E-02,0.103315000661,
    0.122494557359,0.141674114057,0.160853670756,0.180033227454,
    0.199212784152,0.218392340851,0.237571897549,0.256751454248,
    0.275931010946,0.295110567644,0.314290124343,0.333469681041,
    0.352649237739,0.371828794438,0.391008351136,0.410187907835,
    0.429367464533,0.448547021231,0.46772657793,0.486906134628,
    0.506085691326),.QUASI_UNIFORM_KNOTS.);
#310 = CARTESIAN_POINT('',(9.056266372357,-0.312132034356));
#311 = CARTESIAN_POINT('',(9.05192803868,-0.304948714582));
#312 = CARTESIAN_POINT('',(9.043304982776,-0.290356706261));
#313 = CARTESIAN_POINT('',(9.030529344658,-0.267802013495));
#314 = CARTESIAN_POINT('',(9.01791076535,-0.244590278437));
#315 = CARTESIAN_POINT('',(9.005447352027,-0.220730397225));
#316 = CARTESIAN_POINT('',(8.993137210455,-0.196230811277));
#317 = CARTESIAN_POINT('',(8.980978446107,-0.171099459952));
#318 = CARTESIAN_POINT('',(8.968969166042,-0.145343821007));
#319 = CARTESIAN_POINT('',(8.957107480451,-0.118970925832));
#320 = CARTESIAN_POINT('',(8.945391504162,-9.198737984731E-02));
#321 = CARTESIAN_POINT('',(8.93381935803,-6.439938004618E-02));
#322 = CARTESIAN_POINT('',(8.922389170243,-3.621273190997E-02));
#323 = CARTESIAN_POINT('',(8.911099077538,-7.432865200409E-03));
#324 = CARTESIAN_POINT('',(8.899947226333,2.193515115775E-02));
#325 = CARTESIAN_POINT('',(8.888931773774,5.188659508843E-02));
#326 = CARTESIAN_POINT('',(8.878050888711,8.241707818504E-02));
#327 = CARTESIAN_POINT('',(8.867302752598,0.113522533364));
#328 = CARTESIAN_POINT('',(8.856685560312,0.145199203032));
#329 = CARTESIAN_POINT('',(8.846197520955,0.177443628733));
#330 = CARTESIAN_POINT('',(8.835836858403,0.210252638486));
#331 = CARTESIAN_POINT('',(8.825601812516,0.243623345704));
#332 = CARTESIAN_POINT('',(8.815490637569,0.27755310777));
#333 = CARTESIAN_POINT('',(8.808831286403,0.300544127781));
#334 = CARTESIAN_POINT('',(8.805521680635,0.312132034356));
#335 = ( GEOMETRIC_REPRESENTATION_CONTEXT(2) 
PARAMETRIC_REPRESENTATION_CONTEXT() REPRESENTATION_CONTEXT('2D SPACE',''
  ) );
#336 = PCURVE('',#71,#337);
#337 = DEFINITIONAL_REPRESENTATION('',(#338),#342);
#338 = ( BOUNDED_CURVE() B_SPLINE_CURVE(2,(#339,#340,#341),
.UNSPECIFIED.,.F.,.F.) B_SPLINE_CURVE_WITH_KNOTS((3,3),(
8.413544396215E-02,0.506085691326),.PIECEWISE_BEZIER_KNOTS.) CURVE() 
GEOMETRIC_REPRESENTATION_ITEM() RATIONAL_B_SPLINE_CURVE((1.033953833285,
1.117337847169,1.18309426004)) REPRESENTATION_ITEM('') );
#339 = CARTESIAN_POINT('',(4.544607293389,8.7867965644E-02));
#340 = CARTESIAN_POINT('',(5.153549813832,0.307225713101));
#341 = CARTESIAN_POINT('',(5.851147334486,0.712132034356));
#342 = ( GEOMETRIC_REPRESENTATION_CONTEXT(2) 
PARAMETRIC_REPRESENTATION_CONTEXT() REPRESENTATION_CONTEXT('2D SPACE',''
  ) );
#343 = ADVANCED_FACE('',(#344),#289,.T.);
#344 = FACE_BOUND('',#345,.T.);
#345 = EDGE_LOOP('',(#346,#397,#398,#449));
#346 = ORIENTED_EDGE('',*,*,#347,.T.);
#347 = EDGE_CURVE('',#348,#273,#350,.T.);
#348 = VERTEX_POINT('',#349);
#349 = CARTESIAN_POINT('',(0.782063540636,31.,4.));
#350 = SURFACE_CURVE('',#351,(#358,#387),.PCURVE_S1.);
#351 = B_SPLINE_CURVE_WITH_KNOTS('',3,(#352,#353,#354,#355,#356,#357),
  .UNSPECIFIED.,.F.,.F.,(4,2,4),(0.781545026065,0.841900188134,
    0.854016714393),.UNSPECIFIED.);
#352 = CARTESIAN_POINT('',(0.782063540636,31.,4.));
#353 = CARTESIAN_POINT('',(0.9832474142,31.,4.));
#354 = CARTESIAN_POINT('',(1.224554812969,30.992606170612,4.));
#355 = CARTESIAN_POINT('',(1.460065949433,30.938831845547,4.));
#356 = CARTESIAN_POINT('',(1.503075738174,30.927092836229,4.));
#357 = CARTESIAN_POINT('',(1.544607293389,30.912132034356,4.));
#358 = PCURVE('',#289,#359);
#359 = DEFINITIONAL_REPRESENTATION('',(#360),#386);
#360 = B_SPLINE_CURVE_WITH_KNOTS('',3,(#361,#362,#363,#364,#365,#366,
    #367,#368,#369,#370,#371,#372,#373,#374,#375,#376,#377,#378,#379,
    #380,#381,#382,#383,#384,#385),.UNSPECIFIED.,.F.,.F.,(4,1,1,1,1,1,1,
    1,1,1,1,1,1,1,1,1,1,1,1,1,1,1,4),(0.781545026065,0.784839193717,
    0.788133361368,0.791427529019,0.79472169667,0.798015864322,
    0.801310031973,0.804604199624,0.807898367275,0.811192534927,
    0.814486702578,0.817780870229,0.821075037881,0.824369205532,
    0.827663373183,0.830957540834,0.834251708486,0.837545876137,
    0.840840043788,0.84413421144,0.847428379091,0.850722546742,
    0.854016714393),.QUASI_UNIFORM_KNOTS.);
#361 = CARTESIAN_POINT('',(2.94851243711,4.712388980385));
#362 = CARTESIAN_POINT('',(2.945868357602,4.719411943592));
#363 = CARTESIAN_POINT('',(2.940530886135,4.733896856491));
#364 = CARTESIAN_POINT('',(2.932399034098,4.756943229796));
#365 = CARTESIAN_POINT('',(2.924163899396,4.781312124383));
#366 = CARTESIAN_POINT('',(2.915847600432,4.807001902691));
#367 = CARTESIAN_POINT('',(2.907472052268,4.834007393747));
#368 = CARTESIAN_POINT('',(2.89905891309,4.862319415564));
#369 = CARTESIAN_POINT('',(2.890629557369,4.891924998603));
#370 = CARTESIAN_POINT('',(2.882205044119,4.922807587225));
#371 = CARTESIAN_POINT('',(2.873806089121,4.954947440202));
#372 = CARTESIAN_POINT('',(2.865453040215,4.988322189284));
#373 = CARTESIAN_POINT('',(2.857165853144,5.022907601242));
#374 = CARTESIAN_POINT('',(2.848964081415,5.058678478344));
#375 = CARTESIAN_POINT('',(2.840866831112,5.09560995228));
#376 = CARTESIAN_POINT('',(2.832892865308,5.133678214316));
#377 = CARTESIAN_POINT('',(2.825060170196,5.17286420612));
#378 = CARTESIAN_POINT('',(2.817387550998,5.213147031991));
#379 = CARTESIAN_POINT('',(2.809888674271,5.254536377578));
#380 = CARTESIAN_POINT('',(2.802594322577,5.296959840701));
#381 = CARTESIAN_POINT('',(2.795469381369,5.34069203158));
#382 = CARTESIAN_POINT('',(2.788021021968,5.389169199952));
#383 = CARTESIAN_POINT('',(2.780513655813,5.441375009969));
#384 = CARTESIAN_POINT('',(2.775537346465,5.478615197872));
#385 = CARTESIAN_POINT('',(2.773081065178,5.49778714378));
#386 = ( GEOMETRIC_REPRESENTATION_CONTEXT(2) 
PARAMETRIC_REPRESENTATION_CONTEXT() REPRESENTATION_CONTEXT('2D SPACE',''
  ) );
#387 = PCURVE('',#71,#388);
#388 = DEFINITIONAL_REPRESENTATION('',(#389),#396);
#389 = B_SPLINE_CURVE_WITH_KNOTS('',3,(#390,#391,#392,#393,#394,#395),
  .UNSPECIFIED.,.F.,.F.,(4,2,4),(0.781545026065,0.841900188134,
    0.854016714393),.UNSPECIFIED.);
#390 = CARTESIAN_POINT('',(3.782063540636,0.));
#391 = CARTESIAN_POINT('',(3.9832474142,0.));
#392 = CARTESIAN_POINT('',(4.224554812969,7.393829387901E-03));
#393 = CARTESIAN_POINT('',(4.460065949433,6.11681544533E-02));
#394 = CARTESIAN_POINT('',(4.503075738174,7.29071637706E-02));
#395 = CARTESIAN_POINT('',(4.544607293389,8.78679656435E-02));
#396 = ( GEOMETRIC_REPRESENTATION_CONTEXT(2) 
PARAMETRIC_REPRESENTATION_CONTEXT() REPRESENTATION_CONTEXT('2D SPACE',''
  ) );
#397 = ORIENTED_EDGE('',*,*,#272,.T.);
#398 = ORIENTED_EDGE('',*,*,#399,.T.);
#399 = EDGE_CURVE('',#228,#400,#402,.T.);
#400 = VERTEX_POINT('',#401);
#401 = CARTESIAN_POINT('',(-0.782063540636,31.,4.));
#402 = SURFACE_CURVE('',#403,(#410,#439),.PCURVE_S1.);
#403 = B_SPLINE_CURVE_WITH_KNOTS('',3,(#404,#405,#406,#407,#408,#409),
  .UNSPECIFIED.,.F.,.F.,(4,2,4),(0.562419632692,0.574536158951,
    0.63489132102),.UNSPECIFIED.);
#404 = CARTESIAN_POINT('',(-1.54460729339,30.912132034356,4.));
#405 = CARTESIAN_POINT('',(-1.503075738175,30.927092836229,4.));
#406 = CARTESIAN_POINT('',(-1.460065949433,30.938831845547,4.));
#407 = CARTESIAN_POINT('',(-1.224554812969,30.992606170612,4.));
#408 = CARTESIAN_POINT('',(-0.9832474142,31.,4.));
#409 = CARTESIAN_POINT('',(-0.782063540636,31.,4.));
#410 = PCURVE('',#289,#411);
#411 = DEFINITIONAL_REPRESENTATION('',(#412),#438);
#412 = B_SPLINE_CURVE_WITH_KNOTS('',3,(#413,#414,#415,#416,#417,#418,
    #419,#420,#421,#422,#423,#424,#425,#426,#427,#428,#429,#430,#431,
    #432,#433,#434,#435,#436,#437),.UNSPECIFIED.,.F.,.F.,(4,1,1,1,1,1,1,
    1,1,1,1,1,1,1,1,1,1,1,1,1,1,1,4),(0.562419632692,0.565713800343,
    0.569007967994,0.572302135645,0.575596303297,0.578890470948,
    0.582184638599,0.585478806251,0.588772973902,0.592067141553,
    0.595361309204,0.598655476856,0.601949644507,0.605243812158,
    0.60853797981,0.611832147461,0.615126315112,0.618420482763,
    0.621714650415,0.625008818066,0.628302985717,0.631597153368,
    0.63489132102),.QUASI_UNIFORM_KNOTS.);
#413 = CARTESIAN_POINT('',(-2.773081065177,5.497787143781));
#414 = CARTESIAN_POINT('',(-2.775537346465,5.478615197873));
#415 = CARTESIAN_POINT('',(-2.780513655813,5.44137500997));
#416 = CARTESIAN_POINT('',(-2.788021021968,5.389169199953));
#417 = CARTESIAN_POINT('',(-2.795469381369,5.340692031581));
#418 = CARTESIAN_POINT('',(-2.802594322577,5.296959840702));
#419 = CARTESIAN_POINT('',(-2.80988867427,5.254536377579));
#420 = CARTESIAN_POINT('',(-2.817387550998,5.213147031991));
#421 = CARTESIAN_POINT('',(-2.825060170196,5.172864206121));
#422 = CARTESIAN_POINT('',(-2.832892865308,5.133678214317));
#423 = CARTESIAN_POINT('',(-2.840866831112,5.09560995228));
#424 = CARTESIAN_POINT('',(-2.848964081415,5.058678478344));
#425 = CARTESIAN_POINT('',(-2.857165853144,5.022907601242));
#426 = CARTESIAN_POINT('',(-2.865453040214,4.988322189284));
#427 = CARTESIAN_POINT('',(-2.873806089121,4.954947440203));
#428 = CARTESIAN_POINT('',(-2.882205044119,4.922807587225));
#429 = CARTESIAN_POINT('',(-2.890629557369,4.891924998603));
#430 = CARTESIAN_POINT('',(-2.89905891309,4.862319415565));
#431 = CARTESIAN_POINT('',(-2.907472052268,4.834007393748));
#432 = CARTESIAN_POINT('',(-2.915847600432,4.807001902691));
#433 = CARTESIAN_POINT('',(-2.924163899396,4.781312124384));
#434 = CARTESIAN_POINT('',(-2.932399034098,4.756943229796));
#435 = CARTESIAN_POINT('',(-2.940530886135,4.733896856491));
#436 = CARTESIAN_POINT('',(-2.945868357602,4.719411943592));
#437 = CARTESIAN_POINT('',(-2.94851243711,4.712388980385));
#438 = ( GEOMETRIC_REPRESENTATION_CONTEXT(2) 
PARAMETRIC_REPRESENTATION_CONTEXT() REPRESENTATION_CONTEXT('2D SPACE',''
  ) );
#439 = PCURVE('',#71,#440);
#440 = DEFINITIONAL_REPRESENTATION('',(#441),#448);
#441 = B_SPLINE_CURVE_WITH_KNOTS('',3,(#442,#443,#444,#445,#446,#447),
  .UNSPECIFIED.,.F.,.F.,(4,2,4),(0.562419632692,0.574536158951,
    0.63489132102),.UNSPECIFIED.);
#442 = CARTESIAN_POINT('',(1.45539270661,8.78679656438E-02));
#443 = CARTESIAN_POINT('',(1.496924261825,7.29071637708E-02));
#444 = CARTESIAN_POINT('',(1.539934050567,6.11681544534E-02));
#445 = CARTESIAN_POINT('',(1.775445187031,7.393829387901E-03));
#446 = CARTESIAN_POINT('',(2.0167525858,0.));
#447 = CARTESIAN_POINT('',(2.217936459364,0.));
#448 = ( GEOMETRIC_REPRESENTATION_CONTEXT(2) 
PARAMETRIC_REPRESENTATION_CONTEXT() REPRESENTATION_CONTEXT('2D SPACE',''
  ) );
#449 = ORIENTED_EDGE('',*,*,#450,.T.);
#450 = EDGE_CURVE('',#400,#348,#451,.T.);
#451 = SURFACE_CURVE('',#452,(#457,#464),.PCURVE_S1.);
#452 = CIRCLE('',#453,4.075735931288);
#453 = AXIS2_PLACEMENT_3D('',#454,#455,#456);
#454 = CARTESIAN_POINT('',(0.,31.,0.));
#455 = DIRECTION('',(0.,-1.,0.));
#456 = DIRECTION('',(1.836970198721E-16,0.,-1.));
#457 = PCURVE('',#289,#458);
#458 = DEFINITIONAL_REPRESENTATION('',(#459),#463);
#459 = LINE('',#460,#461);
#460 = CARTESIAN_POINT('',(-6.28318530718,4.712388980385));
#461 = VECTOR('',#462,1.);
#462 = DIRECTION('',(1.,0.));
#463 = ( GEOMETRIC_REPRESENTATION_CONTEXT(2) 
PARAMETRIC_REPRESENTATION_CONTEXT() REPRESENTATION_CONTEXT('2D SPACE',''
  ) );
#464 = PCURVE('',#465,#470);
#465 = PLANE('',#466);
#466 = AXIS2_PLACEMENT_3D('',#467,#468,#469);
#467 = CARTESIAN_POINT('',(0.,31.,0.));
#468 = DIRECTION('',(0.,1.,0.));
#469 = DIRECTION('',(-1.,0.,0.));
#470 = DEFINITIONAL_REPRESENTATION('',(#471),#479);
#471 = ( BOUNDED_CURVE() B_SPLINE_CURVE(2,(#472,#473,#474,#475,#476,#477
,#478),.UNSPECIFIED.,.T.,.F.) B_SPLINE_CURVE_WITH_KNOTS((1,2,2,2,2,1),(
    -2.094395102393,0.,2.094395102393,4.188790204786,6.28318530718,
8.377580409573),.UNSPECIFIED.) CURVE() GEOMETRIC_REPRESENTATION_ITEM() 
RATIONAL_B_SPLINE_CURVE((1.,0.5,1.,0.5,1.,0.5,1.)) REPRESENTATION_ITEM(
  '') );
#472 = CARTESIAN_POINT('',(-7.487005443633E-16,-4.075735931288));
#473 = CARTESIAN_POINT('',(-7.059381711225,-4.075735931288));
#474 = CARTESIAN_POINT('',(-3.529690855612,2.037867965644));
#475 = CARTESIAN_POINT('',(4.991336962422E-16,8.151471862576));
#476 = CARTESIAN_POINT('',(3.529690855612,2.037867965644));
#477 = CARTESIAN_POINT('',(7.059381711225,-4.075735931288));
#478 = CARTESIAN_POINT('',(-7.487005443633E-16,-4.075735931288));
#479 = ( GEOMETRIC_REPRESENTATION_CONTEXT(2) 
PARAMETRIC_REPRESENTATION_CONTEXT() REPRESENTATION_CONTEXT('2D SPACE',''
  ) );
#480 = ADVANCED_FACE('',(#481),#71,.F.);
#481 = FACE_BOUND('',#482,.T.);
#482 = EDGE_LOOP('',(#483,#484,#485,#486,#507,#508,#509,#510,#533,#561)
  );
#483 = ORIENTED_EDGE('',*,*,#117,.F.);
#484 = ORIENTED_EDGE('',*,*,#301,.F.);
#485 = ORIENTED_EDGE('',*,*,#347,.F.);
#486 = ORIENTED_EDGE('',*,*,#487,.F.);
#487 = EDGE_CURVE('',#400,#348,#488,.T.);
#488 = SURFACE_CURVE('',#489,(#493,#500),.PCURVE_S1.);
#489 = LINE('',#490,#491);
#490 = CARTESIAN_POINT('',(-1.5,31.,4.));
#491 = VECTOR('',#492,1.);
#492 = DIRECTION('',(1.,0.,0.));
#493 = PCURVE('',#71,#494);
#494 = DEFINITIONAL_REPRESENTATION('',(#495),#499);
#495 = LINE('',#496,#497);
#496 = CARTESIAN_POINT('',(1.5,0.));
#497 = VECTOR('',#498,1.);
#498 = DIRECTION('',(1.,0.));
#499 = ( GEOMETRIC_REPRESENTATION_CONTEXT(2) 
PARAMETRIC_REPRESENTATION_CONTEXT() REPRESENTATION_CONTEXT('2D SPACE',''
  ) );
#500 = PCURVE('',#465,#501);
#501 = DEFINITIONAL_REPRESENTATION('',(#502),#506);
#502 = LINE('',#503,#504);
#503 = CARTESIAN_POINT('',(1.5,4.));
#504 = VECTOR('',#505,1.);
#505 = DIRECTION('',(-1.,0.));
#506 = ( GEOMETRIC_REPRESENTATION_CONTEXT(2) 
PARAMETRIC_REPRESENTATION_CONTEXT() REPRESENTATION_CONTEXT('2D SPACE',''
  ) );
#507 = ORIENTED_EDGE('',*,*,#399,.F.);
#508 = ORIENTED_EDGE('',*,*,#227,.F.);
#509 = ORIENTED_EDGE('',*,*,#21,.F.);
#510 = ORIENTED_EDGE('',*,*,#511,.F.);
#511 = EDGE_CURVE('',#512,#22,#514,.T.);
#512 = VERTEX_POINT('',#513);
#513 = CARTESIAN_POINT('',(-3.,3.,4.));
#514 = SURFACE_CURVE('',#515,(#519,#526),.PCURVE_S1.);
#515 = LINE('',#516,#517);
#516 = CARTESIAN_POINT('',(-3.,0.,4.));
#517 = VECTOR('',#518,1.);
#518 = DIRECTION('',(0.,1.,0.));
#519 = PCURVE('',#71,#520);
#520 = DEFINITIONAL_REPRESENTATION('',(#521),#525);
#521 = LINE('',#522,#523);
#522 = CARTESIAN_POINT('',(0.,31.));
#523 = VECTOR('',#524,1.);
#524 = DIRECTION('',(0.,-1.));
#525 = ( GEOMETRIC_REPRESENTATION_CONTEXT(2) 
PARAMETRIC_REPRESENTATION_CONTEXT() REPRESENTATION_CONTEXT('2D SPACE',''
  ) );
#526 = PCURVE('',#189,#527);
#527 = DEFINITIONAL_REPRESENTATION('',(#528),#532);
#528 = LINE('',#529,#530);
#529 = CARTESIAN_POINT('',(0.927295218002,0.));
#530 = VECTOR('',#531,1.);
#531 = DIRECTION('',(0.,1.));
#532 = ( GEOMETRIC_REPRESENTATION_CONTEXT(2) 
PARAMETRIC_REPRESENTATION_CONTEXT() REPRESENTATION_CONTEXT('2D SPACE',''
  ) );
#533 = ORIENTED_EDGE('',*,*,#534,.T.);
#534 = EDGE_CURVE('',#512,#535,#537,.T.);
#535 = VERTEX_POINT('',#536);
#536 = CARTESIAN_POINT('',(3.,3.,4.));
#537 = SURFACE_CURVE('',#538,(#542,#549),.PCURVE_S1.);
#538 = LINE('',#539,#540);
#539 = CARTESIAN_POINT('',(-3.,3.,4.));
#540 = VECTOR('',#541,1.);
#541 = DIRECTION('',(1.,0.,0.));
#542 = PCURVE('',#71,#543);
#543 = DEFINITIONAL_REPRESENTATION('',(#544),#548);
#544 = LINE('',#545,#546);
#545 = CARTESIAN_POINT('',(0.,28.));
#546 = VECTOR('',#547,1.);
#547 = DIRECTION('',(1.,0.));
#548 = ( GEOMETRIC_REPRESENTATION_CONTEXT(2) 
PARAMETRIC_REPRESENTATION_CONTEXT() REPRESENTATION_CONTEXT('2D SPACE',''
  ) );
#549 = PCURVE('',#550,#555);
#550 = PLANE('',#551);
#551 = AXIS2_PLACEMENT_3D('',#552,#553,#554);
#552 = CARTESIAN_POINT('',(0.,3.,4.5));
#553 = DIRECTION('',(0.,1.,0.));
#554 = DIRECTION('',(-1.,0.,0.));
#555 = DEFINITIONAL_REPRESENTATION('',(#556),#560);
#556 = LINE('',#557,#558);
#557 = CARTESIAN_POINT('',(3.,-0.5));
#558 = VECTOR('',#559,1.);
#559 = DIRECTION('',(-1.,0.));
#560 = ( GEOMETRIC_REPRESENTATION_CONTEXT(2) 
PARAMETRIC_REPRESENTATION_CONTEXT() REPRESENTATION_CONTEXT('2D SPACE',''
  ) );
#561 = ORIENTED_EDGE('',*,*,#562,.F.);
#562 = EDGE_CURVE('',#118,#535,#563,.T.);
#563 = SURFACE_CURVE('',#564,(#568,#575),.PCURVE_S1.);
#564 = LINE('',#565,#566);
#565 = CARTESIAN_POINT('',(3.,0.,4.));
#566 = VECTOR('',#567,1.);
#567 = DIRECTION('',(0.,-1.,0.));
#568 = PCURVE('',#71,#569);
#569 = DEFINITIONAL_REPRESENTATION('',(#570),#574);
#570 = LINE('',#571,#572);
#571 = CARTESIAN_POINT('',(6.,31.));
#572 = VECTOR('',#573,1.);
#573 = DIRECTION('',(0.,1.));
#574 = ( GEOMETRIC_REPRESENTATION_CONTEXT(2) 
PARAMETRIC_REPRESENTATION_CONTEXT() REPRESENTATION_CONTEXT('2D SPACE',''
  ) );
#575 = PCURVE('',#189,#576);
#576 = DEFINITIONAL_REPRESENTATION('',(#577),#581);
#577 = LINE('',#578,#579);
#578 = CARTESIAN_POINT('',(2.214297435588,0.));
#579 = VECTOR('',#580,1.);
#580 = DIRECTION('',(0.,-1.));
#581 = ( GEOMETRIC_REPRESENTATION_CONTEXT(2) 
PARAMETRIC_REPRESENTATION_CONTEXT() REPRESENTATION_CONTEXT('2D SPACE',''
  ) );
#582 = ADVANCED_FACE('',(#583),#465,.T.);
#583 = FACE_BOUND('',#584,.T.);
#584 = EDGE_LOOP('',(#585,#586));
#585 = ORIENTED_EDGE('',*,*,#450,.F.);
#586 = ORIENTED_EDGE('',*,*,#487,.T.);
#587 = ADVANCED_FACE('',(#588),#550,.T.);
#588 = FACE_BOUND('',#589,.T.);
#589 = EDGE_LOOP('',(#590,#616));
#590 = ORIENTED_EDGE('',*,*,#591,.F.);
#591 = EDGE_CURVE('',#535,#512,#592,.T.);
#592 = SURFACE_CURVE('',#593,(#598,#609),.PCURVE_S1.);
#593 = CIRCLE('',#594,5.);
#594 = AXIS2_PLACEMENT_3D('',#595,#596,#597);
#595 = CARTESIAN_POINT('',(0.,3.,0.));
#596 = DIRECTION('',(0.,-1.,0.));
#597 = DIRECTION('',(-1.,0.,0.));
#598 = PCURVE('',#550,#599);
#599 = DEFINITIONAL_REPRESENTATION('',(#600),#608);
#600 = ( BOUNDED_CURVE() B_SPLINE_CURVE(2,(#601,#602,#603,#604,#605,#606
,#607),.UNSPECIFIED.,.T.,.F.) B_SPLINE_CURVE_WITH_KNOTS((1,2,2,2,2,1),(
    -2.094395102393,0.,2.094395102393,4.188790204786,6.28318530718,
8.377580409573),.UNSPECIFIED.) CURVE() GEOMETRIC_REPRESENTATION_ITEM() 
RATIONAL_B_SPLINE_CURVE((1.,0.5,1.,0.5,1.,0.5,1.)) REPRESENTATION_ITEM(
  '') );
#601 = CARTESIAN_POINT('',(5.,-4.5));
#602 = CARTESIAN_POINT('',(5.,-13.16025403784));
#603 = CARTESIAN_POINT('',(-2.5,-8.830127018922));
#604 = CARTESIAN_POINT('',(-10.,-4.5));
#605 = CARTESIAN_POINT('',(-2.5,-0.169872981078));
#606 = CARTESIAN_POINT('',(5.,4.160254037844));
#607 = CARTESIAN_POINT('',(5.,-4.5));
#608 = ( GEOMETRIC_REPRESENTATION_CONTEXT(2) 
PARAMETRIC_REPRESENTATION_CONTEXT() REPRESENTATION_CONTEXT('2D SPACE',''
  ) );
#609 = PCURVE('',#189,#610);
#610 = DEFINITIONAL_REPRESENTATION('',(#611),#615);
#611 = LINE('',#612,#613);
#612 = CARTESIAN_POINT('',(6.28318530718,3.));
#613 = VECTOR('',#614,1.);
#614 = DIRECTION('',(-1.,0.));
#615 = ( GEOMETRIC_REPRESENTATION_CONTEXT(2) 
PARAMETRIC_REPRESENTATION_CONTEXT() REPRESENTATION_CONTEXT('2D SPACE',''
  ) );
#616 = ORIENTED_EDGE('',*,*,#534,.F.);
#617 = ADVANCED_FACE('',(#618),#189,.T.);
#618 = FACE_BOUND('',#619,.T.);
#619 = EDGE_LOOP('',(#620,#621,#622,#623,#624,#625,#648,#675));
#620 = ORIENTED_EDGE('',*,*,#172,.F.);
#621 = ORIENTED_EDGE('',*,*,#562,.T.);
#622 = ORIENTED_EDGE('',*,*,#591,.T.);
#623 = ORIENTED_EDGE('',*,*,#511,.T.);
#624 = ORIENTED_EDGE('',*,*,#201,.F.);
#625 = ORIENTED_EDGE('',*,*,#626,.T.);
#626 = EDGE_CURVE('',#173,#627,#629,.T.);
#627 = VERTEX_POINT('',#628);
#628 = CARTESIAN_POINT('',(5.,-70.,-6.123233995737E-16));
#629 = SEAM_CURVE('',#630,(#634,#641),.PCURVE_S1.);
#630 = LINE('',#631,#632);
#631 = CARTESIAN_POINT('',(5.,0.,-6.123233995737E-16));
#632 = VECTOR('',#633,1.);
#633 = DIRECTION('',(0.,-1.,0.));
#634 = PCURVE('',#189,#635);
#635 = DEFINITIONAL_REPRESENTATION('',(#636),#640);
#636 = LINE('',#637,#638);
#637 = CARTESIAN_POINT('',(-3.14159265359,0.));
#638 = VECTOR('',#639,1.);
#639 = DIRECTION('',(0.,-1.));
#640 = ( GEOMETRIC_REPRESENTATION_CONTEXT(2) 
PARAMETRIC_REPRESENTATION_CONTEXT() REPRESENTATION_CONTEXT('2D SPACE',''
  ) );
#641 = PCURVE('',#189,#642);
#642 = DEFINITIONAL_REPRESENTATION('',(#643),#647);
#643 = LINE('',#644,#645);
#644 = CARTESIAN_POINT('',(3.14159265359,0.));
#645 = VECTOR('',#646,1.);
#646 = DIRECTION('',(0.,-1.));
#647 = ( GEOMETRIC_REPRESENTATION_CONTEXT(2) 
PARAMETRIC_REPRESENTATION_CONTEXT() REPRESENTATION_CONTEXT('2D SPACE',''
  ) );
#648 = ORIENTED_EDGE('',*,*,#649,.T.);
#649 = EDGE_CURVE('',#627,#627,#650,.T.);
#650 = SURFACE_CURVE('',#651,(#656,#663),.PCURVE_S1.);
#651 = CIRCLE('',#652,5.);
#652 = AXIS2_PLACEMENT_3D('',#653,#654,#655);
#653 = CARTESIAN_POINT('',(0.,-70.,0.));
#654 = DIRECTION('',(0.,1.,0.));
#655 = DIRECTION('',(-1.,0.,0.));
#656 = PCURVE('',#189,#657);
#657 = DEFINITIONAL_REPRESENTATION('',(#658),#662);
#658 = LINE('',#659,#660);
#659 = CARTESIAN_POINT('',(-6.28318530718,-70.));
#660 = VECTOR('',#661,1.);
#661 = DIRECTION('',(1.,0.));
#662 = ( GEOMETRIC_REPRESENTATION_CONTEXT(2) 
PARAMETRIC_REPRESENTATION_CONTEXT() REPRESENTATION_CONTEXT('2D SPACE',''
  ) );
#663 = PCURVE('',#664,#669);
#664 = PLANE('',#665);
#665 = AXIS2_PLACEMENT_3D('',#666,#667,#668);
#666 = CARTESIAN_POINT('',(0.,-70.,0.));
#667 = DIRECTION('',(0.,1.,0.));
#668 = DIRECTION('',(-1.,0.,0.));
#669 = DEFINITIONAL_REPRESENTATION('',(#670),#674);
#670 = CIRCLE('',#671,5.);
#671 = AXIS2_PLACEMENT_2D('',#672,#673);
#672 = CARTESIAN_POINT('',(0.,0.));
#673 = DIRECTION('',(1.,0.));
#674 = ( GEOMETRIC_REPRESENTATION_CONTEXT(2) 
PARAMETRIC_REPRESENTATION_CONTEXT() REPRESENTATION_CONTEXT('2D SPACE',''
  ) );
#675 = ORIENTED_EDGE('',*,*,#626,.F.);
#676 = ADVANCED_FACE('',(#677),#664,.F.);
#677 = FACE_BOUND('',#678,.T.);
#678 = EDGE_LOOP('',(#679));
#679 = ORIENTED_EDGE('',*,*,#649,.F.);
#680 = ( GEOMETRIC_REPRESENTATION_CONTEXT(3) 
GLOBAL_UNCERTAINTY_ASSIGNED_CONTEXT((#684)) GLOBAL_UNIT_ASSIGNED_CONTEXT
((#681,#682,#683)) REPRESENTATION_CONTEXT('Context #1',
  '3D Context with UNIT and UNCERTAINTY') );
#681 = ( LENGTH_UNIT() NAMED_UNIT(*) SI_UNIT(.MILLI.,.METRE.) );
#682 = ( NAMED_UNIT(*) PLANE_ANGLE_UNIT() SI_UNIT($,.RADIAN.) );
#683 = ( NAMED_UNIT(*) SI_UNIT($,.STERADIAN.) SOLID_ANGLE_UNIT() );
#684 = UNCERTAINTY_MEASURE_WITH_UNIT(LENGTH_MEASURE(1.E-04),#681,
  'distance_accuracy_value','confusion accuracy');
#685 = PRODUCT_RELATED_PRODUCT_CATEGORY('part',$,(#7));
ENDSEC;
END-ISO-10303-21;
